<svg xmlns="http://www.w3.org/2000/svg" xmlns:xlink="http://www.w3.org/1999/xlink" xmlns:lucid="lucid" width="3590.86" height="1349.43"><g transform="translate(629.1142822716618 207.4666666666667)" lucid:page-tab-id="0_0"><path d="M-1000-500h4000v2000h-4000z" fill="#f2f3f5"/><path d="M-480.1 161.15c17.66 0 32 17.9 32 40s-14.34 40-32 40h-96c-17.7 0-32-17.9-32-40s14.3-40 32-40z" stroke="#000" stroke-opacity="0" stroke-width="2" fill="#d2d3d5"/><use xlink:href="#a" transform="matrix(1,0,0,1,-603.1142822716618,166.15364265176402) translate(31.1 38.4625)"/><use xlink:href="#b" transform="matrix(1,0,0,1,-603.1142822716618,166.15364265176402) translate(76.94999999999999 38.4625)"/><path d="M-368.1 149.15a8 8 0 0 1 8-8h164a8 8 0 0 1 8 8v104a8 8 0 0 1-8 8h-164a8 8 0 0 1-8-8z" stroke="#000" stroke-opacity="0" stroke-width="2" fill="#d85656"/><use xlink:href="#c" transform="matrix(1,0,0,1,-363.11428227166175,146.15364265176402) translate(33.6 48.775)"/><use xlink:href="#d" transform="matrix(1,0,0,1,-363.11428227166175,146.15364265176402) translate(79.44999999999999 48.775)"/><use xlink:href="#e" transform="matrix(1,0,0,1,-363.11428227166175,146.15364265176402) translate(126.4 48.775)"/><use xlink:href="#f" transform="matrix(1,0,0,1,-363.11428227166175,146.15364265176402) translate(46.074999999999996 70.375)"/><use xlink:href="#g" transform="matrix(1,0,0,1,-363.11428227166175,146.15364265176402) translate(95.025 70.375)"/><use xlink:href="#h" transform="matrix(1,0,0,1,-363.11428227166175,146.15364265176402) translate(117.975 70.375)"/><path d="M-368.1 349.15a8 8 0 0 1 8-8h164a8 8 0 0 1 8 8v104a8 8 0 0 1-8 8h-164a8 8 0 0 1-8-8z" stroke="#000" stroke-opacity="0" stroke-width="2" fill="#9391ff"/><use xlink:href="#i" transform="matrix(1,0,0,1,-363.11428227166175,346.153642651764) translate(7.125 59.0875)"/><use xlink:href="#j" transform="matrix(1,0,0,1,-363.11428227166175,346.153642651764) translate(66.025 59.0875)"/><use xlink:href="#k" transform="matrix(1,0,0,1,-363.11428227166175,346.153642651764) translate(76.97500000000001 59.0875)"/><path d="M-447.6 201.15h63.1" stroke="#333" fill="none"/><path d="M-447.6 201.63h-.54l.03-.48-.03-.47h.53z" stroke="#333" stroke-width=".05" fill="#333"/><path d="M-369.73 201.15L-384 205.8v-9.28z" stroke="#333" fill="#333"/><path d="M-54.5 145.6a10.67 10.67 0 0 1 12.8 0L25.5 196a6 6 0 0 1 0 9.6L-41.7 256a10.67 10.67 0 0 1-12.8 0l-67.2-50.4a6 6 0 0 1 0-9.6z" stroke="#c54242" stroke-width="4" fill="#fff"/><use xlink:href="#l" transform="matrix(1,0,0,1,-123.11428227166175,145.79944202148477) translate(53.504999999999995 48.775)"/><use xlink:href="#m" transform="matrix(1,0,0,1,-123.11428227166175,145.79944202148477) translate(35.08 70.375)"/><path d="M-187.6 201.15h30.3a.18.18 0 0 0 .18-.17.18.18 0 0 1 .18-.18h14.43" stroke="#333" fill="none"/><path d="M-187.6 201.63h-.5v-.95h.5z" stroke="#333" stroke-width=".05" fill="#333"/><path d="M-127.74 200.8l-14.27 4.63v-9.27z" stroke="#333" fill="#333"/><path d="M174.57-31.3a10.4 10.4 0 0 1 10.06-7.73h152a6.15 6.15 0 0 1 5.94 7.73L314.7 73.24a10.4 10.4 0 0 1-10.06 7.73h-152a6.15 6.15 0 0 1-5.94-7.73z" stroke="#000" stroke-opacity="0" stroke-width="2" fill="#ffe4e4"/><use xlink:href="#n" transform="matrix(1,0,0,1,149.63522619645323,-34.033559606848314) translate(60.58 38.4625)"/><use xlink:href="#o" transform="matrix(1,0,0,1,149.63522619645323,-34.033559606848314) translate(26.130000000000003 60.0625)"/><use xlink:href="#p" transform="matrix(1,0,0,1,149.63522619645323,-34.033559606848314) translate(31.130000000000003 60.0625)"/><use xlink:href="#q" transform="matrix(1,0,0,1,149.63522619645323,-34.033559606848314) translate(107.97999999999999 60.0625)"/><use xlink:href="#r" transform="matrix(1,0,0,1,149.63522619645323,-34.033559606848314) translate(65.055 81.66250000000001)"/><path d="M-17.46 21.44H-36.1l-1.82.14-1.75.43-1.68.7-1.54.94-1.36 1.18-1.18 1.37-.94 1.54-.7 1.67-.42 1.76-.14 1.82v107.98h-.95v-108l.16-1.95.46-1.9.75-1.8 1.02-1.67 1.26-1.5 1.5-1.26 1.66-1.02 1.8-.75 1.9-.46 1.95-.15h18.67zm161.7 0H9.5v-.95h134.75z" stroke="#333" stroke-width=".05" fill="#333"/><path d="M-47.64 141.5l-.47-.04-.5.03v-.55h.96z" fill="#333"/><path stroke="#333" stroke-width=".05" fill="#333"/><path d="M159.02 20.97l-14.27 4.63v-9.27z" fill="#333"/><path d="M160.55 20.97l-16.27 5.3v-10.6zm-15.32 3.98l12.25-3.98L145.23 17z" stroke="#333" stroke-width=".05" fill="#333"/><use xlink:href="#s" transform="matrix(1,0,0,1,-17.462265703989154,10.166440393151685) translate(0.005000000000000782 14.4)"/><path d="M145.2 200.68v.95h-40.96v-.96zm-114.8.6v-.96h56.84v.95z" stroke="#333" stroke-width=".05" fill="#333"/><path d="M30.4 201.27h-.55l.04-.47-.05-.48h.56z" fill="#333"/><path stroke="#333" stroke-width=".05" fill="#333"/><path d="M159.97 201.15l-14.26 4.64v-9.28z" fill="#333"/><path d="M161.5 201.15l-16.27 5.3v-10.58zm-15.32 3.98l12.26-3.98-12.26-3.98z" stroke="#333" stroke-width=".05" fill="#333"/><use xlink:href="#t" transform="matrix(1,0,0,1,87.24349184155902,190.17654233662438) translate(0.005000000000000782 14.4)"/><path d="M175.53 148.88a10.4 10.4 0 0 1 10.06-7.73h152a6.15 6.15 0 0 1 5.93 7.73l-27.88 104.54a10.4 10.4 0 0 1-10.06 7.73h-152a6.15 6.15 0 0 1-5.95-7.73z" stroke="#000" stroke-opacity="0" stroke-width="2" fill="#eb6b6b"/><use xlink:href="#u" transform="matrix(1,0,0,1,150.59261215765196,146.15364265176402) translate(71.055 38.4625)"/><use xlink:href="#v" transform="matrix(1,0,0,1,150.59261215765196,146.15364265176402) translate(56.505 60.0625)"/><use xlink:href="#w" transform="matrix(1,0,0,1,150.59261215765196,146.15364265176402) translate(89.505 60.0625)"/><use xlink:href="#x" transform="matrix(1,0,0,1,150.59261215765196,146.15364265176402) translate(89.00500000000001 81.66250000000001)"/><path d="M-528.1 241.65v147.5a12 12 0 0 0 12 12h131.6" stroke="#333" fill="none"/><path d="M-527.64 241.67h-.95v-.52h.96z" stroke="#333" stroke-width=".05" fill="#333"/><path d="M-369.73 401.15L-384 405.8v-9.28z" stroke="#333" fill="#333"/><path d="M471.9 69.15a8 8 0 0 1 8-8h144a8 8 0 0 1 8 8v104a8 8 0 0 1-8 8h-144a8 8 0 0 1-8-8z" stroke="#000" stroke-opacity="0" stroke-width="2" fill="#c54242"/><use xlink:href="#i" transform="matrix(1,0,0,1,476.8857177283385,66.15364265176402) translate(42.574999999999996 48.775)"/><use xlink:href="#y" transform="matrix(1,0,0,1,476.8857177283385,66.15364265176402) translate(101.475 48.775)"/><use xlink:href="#z" transform="matrix(1,0,0,1,476.8857177283385,66.15364265176402) translate(34.074999999999996 70.375)"/><path d="M329.13 20.97h59.13a12 12 0 0 1 12 12v76.18a12 12 0 0 0 12 12h43.24" stroke="#333" fill="none"/><path d="M329.15 21.44h-.64l.26-.95h.4z" stroke="#333" stroke-width=".05" fill="#333"/><path d="M470.27 121.15L456 125.8v-9.28z" stroke="#333" fill="#333"/><path d="M330.1 201.15h58.64a12 12 0 0 0 12-12v-56a12 12 0 0 1 12-12h42.76" stroke="#333" fill="none"/><path d="M330.1 201.63h-.63l.25-.95h.38z" stroke="#333" stroke-width=".05" fill="#333"/><path d="M470.27 121.15L456 125.8v-9.28z" stroke="#333" fill="#333"/><path d="M471.9 349.15a8 8 0 0 1 8-8h144a8 8 0 0 1 8 8v104a8 8 0 0 1-8 8h-144a8 8 0 0 1-8-8z" stroke="#000" stroke-opacity="0" stroke-width="2" fill="#ffa0a0"/><use xlink:href="#A" transform="matrix(1,0,0,1,483.8857177283385,353.153642651764) translate(21.6 29.4)"/><use xlink:href="#B" transform="matrix(1,0,0,1,483.8857177283385,353.153642651764) translate(34.05 51)"/><use xlink:href="#C" transform="matrix(1,0,0,1,483.8857177283385,353.153642651764) translate(42.075 72.60000000000001)"/><path d="M-181.24 401.15H455.5" stroke="#333" fill="none"/><path d="M-187.13 401.15l12.9-7.63v15.27zM470.27 401.15L456 405.8v-9.28z" stroke="#333" fill="#333"/><path d="M791.9-10.85a8 8 0 0 1 8-8h144a8 8 0 0 1 8 8v104a8 8 0 0 1-8 8h-144a8 8 0 0 1-8-8z" stroke="#000" stroke-opacity="0" stroke-width="2" fill="#ffa0a0"/><use xlink:href="#D" transform="matrix(1,0,0,1,803.8857177283382,-6.846357348235983) translate(26.25 29.4)"/><use xlink:href="#E" transform="matrix(1,0,0,1,803.8857177283382,-6.846357348235983) translate(42.525 51)"/><use xlink:href="#F" transform="matrix(1,0,0,1,803.8857177283382,-6.846357348235983) translate(72.475 51)"/><use xlink:href="#G" transform="matrix(1,0,0,1,803.8857177283382,-6.846357348235983) translate(17.099999999999994 72.60000000000001)"/><path d="M795.64 129.15a8 8 0 0 1 8-8h144a8 8 0 0 1 8 8v104a8 8 0 0 1-8 8h-144a8 8 0 0 1-8-8z" stroke="#000" stroke-opacity="0" stroke-width="2" fill="#ffa0a0"/><use xlink:href="#H" transform="matrix(1,0,0,1,807.6421738467868,133.15364265176402) translate(30.025 29.4)"/><use xlink:href="#E" transform="matrix(1,0,0,1,807.6421738467868,133.15364265176402) translate(42.525 51)"/><use xlink:href="#F" transform="matrix(1,0,0,1,807.6421738467868,133.15364265176402) translate(72.475 51)"/><use xlink:href="#G" transform="matrix(1,0,0,1,807.6421738467868,133.15364265176402) translate(17.099999999999994 72.60000000000001)"/><path d="M795.64 269.15a8 8 0 0 1 8-8h144a8 8 0 0 1 8 8v104a8 8 0 0 1-8 8h-144a8 8 0 0 1-8-8z" stroke="#000" stroke-opacity="0" stroke-width="2" fill="#ffa0a0"/><use xlink:href="#I" transform="matrix(1,0,0,1,807.6421738467868,273.153642651764) translate(22.599999999999994 29.4)"/><use xlink:href="#E" transform="matrix(1,0,0,1,807.6421738467868,273.153642651764) translate(42.525 51)"/><use xlink:href="#F" transform="matrix(1,0,0,1,807.6421738467868,273.153642651764) translate(72.475 51)"/><use xlink:href="#G" transform="matrix(1,0,0,1,807.6421738467868,273.153642651764) translate(17.099999999999994 72.60000000000001)"/><path d="M795.64 409.15a8 8 0 0 1 8-8h144a8 8 0 0 1 8 8v104a8 8 0 0 1-8 8h-144a8 8 0 0 1-8-8z" stroke="#000" stroke-opacity="0" stroke-width="2" fill="#ffa0a0"/><use xlink:href="#J" transform="matrix(1,0,0,1,807.6421738467868,413.153642651764) translate(17.424999999999997 29.4)"/><use xlink:href="#K" transform="matrix(1,0,0,1,807.6421738467868,413.153642651764) translate(42.525 51)"/><use xlink:href="#F" transform="matrix(1,0,0,1,807.6421738467868,413.153642651764) translate(72.475 51)"/><use xlink:href="#G" transform="matrix(1,0,0,1,807.6421738467868,413.153642651764) translate(17.099999999999994 72.60000000000001)"/><path d="M551.9 181.65v143.12" stroke="#333" fill="none"/><path d="M552.36 181.67h-.95v-.52h.96z" stroke="#333" stroke-width=".05" fill="#333"/><path d="M551.9 339.54l-4.65-14.27h9.27z" stroke="#333" fill="#333"/><path d="M632.4 401.15h67.5a12 12 0 0 0 12-12v-336a12 12 0 0 1 12-12h51.6" stroke="#333" fill="none"/><path d="M632.4 401.63h-.5v-.95h.5z" stroke="#333" stroke-width=".05" fill="#333"/><path d="M790.27 41.15L776 45.8V36.5z" stroke="#333" fill="#333"/><path d="M632.4 401.15h69.36a12 12 0 0 0 12-12v-196a12 12 0 0 1 12-12h53.5" stroke="#333" fill="none"/><path d="M632.4 401.63h-.5v-.95h.5z" stroke="#333" stroke-width=".05" fill="#333"/><path d="M794.02 181.15l-14.26 4.64v-9.28z" stroke="#333" fill="#333"/><path d="M632.4 401.15h69.36a12 12 0 0 0 12-12v-56a12 12 0 0 1 12-12h53.5" stroke="#333" fill="none"/><path d="M632.4 401.63h-.5v-.95h.5z" stroke="#333" stroke-width=".05" fill="#333"/><path d="M794.02 321.15l-14.26 4.64v-9.28z" stroke="#333" fill="#333"/><path d="M632.4 401.15h69.36a12 12 0 0 1 12 12v36a12 12 0 0 0 12 12h53.5" stroke="#333" fill="none"/><path d="M632.4 401.63h-.5v-.95h.5z" stroke="#333" stroke-width=".05" fill="#333"/><path d="M794.02 461.15l-14.26 4.64v-9.28z" stroke="#333" fill="#333"/><path d="M1145.5 185.95a10.67 10.67 0 0 1 12.8 0l67.2 50.4a6 6 0 0 1 0 9.6l-67.2 50.4a10.67 10.67 0 0 1-12.8 0l-67.2-50.4a6 6 0 0 1 0-9.6z" stroke="#c54242" stroke-width="4" fill="#fff"/><use xlink:href="#L" transform="matrix(1,0,0,1,1076.8857177283382,186.15364265176402) translate(53.504999999999995 48.775)"/><use xlink:href="#M" transform="matrix(1,0,0,1,1076.8857177283382,186.15364265176402) translate(30.080000000000002 70.375)"/><path d="M1302.4 241.63h-72v-.95h72zm73.1 0h-56.1v-.95h56.1z" stroke="#333" stroke-width=".05" fill="#333"/><path d="M1230.4 241.63h-.55l.04-.48-.05-.47h.56z" fill="#333"/><path stroke="#333" stroke-width=".05" fill="#333"/><path d="M1390.27 241.15L1376 245.8v-9.28z" fill="#333"/><path d="M1391.8 241.15l-16.27 5.3v-10.58zm-15.32 3.98l12.25-3.98-12.25-3.98z" stroke="#333" stroke-width=".05" fill="#333"/><use xlink:href="#N" transform="matrix(1,0,0,1,1302.3900369269127,230.353642651764) translate(0.005000000000000782 14.4)"/><path d="M1391.9 189.15a8 8 0 0 1 8-8h144a8 8 0 0 1 8 8v104a8 8 0 0 1-8 8h-144a8 8 0 0 1-8-8z" stroke="#000" stroke-opacity="0" stroke-width="2" fill="#ffa0a0"/><use xlink:href="#O" transform="matrix(1,0,0,1,1403.8857177283382,193.15364265176402) translate(8.099999999999994 50.4)"/><path d="M952.4 41.15h48.48a12 12 0 0 1 12 12v176a12 12 0 0 0 12 12h32.6" stroke="#333" fill="none"/><path d="M952.4 41.63h-.5v-.95h.5z" stroke="#333" stroke-width=".05" fill="#333"/><path d="M1072.26 241.15L1058 245.8v-9.28z" stroke="#333" fill="#333"/><path d="M956.14 181.15h46.62a12 12 0 0 1 12 12v36a12 12 0 0 0 12 12h30.73" stroke="#333" fill="none"/><path d="M956.15 181.63h-.5v-.95h.5z" stroke="#333" stroke-width=".05" fill="#333"/><path d="M1072.26 241.15L1058 245.8v-9.28z" stroke="#333" fill="#333"/><path d="M956.14 321.15h46.62a12 12 0 0 0 12-12v-56a12 12 0 0 1 12-12h30.73" stroke="#333" fill="none"/><path d="M956.15 321.63h-.5v-.95h.5z" stroke="#333" stroke-width=".05" fill="#333"/><path d="M1072.26 241.15L1058 245.8v-9.28z" stroke="#333" fill="#333"/><path d="M956.14 461.15h46.62a12 12 0 0 0 12-12v-196a12 12 0 0 1 12-12h30.73" stroke="#333" fill="none"/><path d="M956.15 461.63h-.5v-.95h.5z" stroke="#333" stroke-width=".05" fill="#333"/><path d="M1072.26 241.15L1058 245.8v-9.28z" stroke="#333" fill="#333"/><path d="M1141.84-195l1.9.47 1.8.75 1.68 1.02 1.5 1.27 1.26 1.5 1.02 1.67.75 1.8.46 1.9.16 1.94v364.02h-.95v-363.97l-.13-1.82-.42-1.76-.7-1.67-.94-1.54-1.17-1.38-1.37-1.17-1.54-.93-1.67-.7-1.76-.42-1.83-.14h-319.7v-.94h319.73zm-344.63.8H256.66l-1.82.15-1.76.42-1.67.7-1.54.94-1.37 1.2-1.2 1.36-.93 1.54-.7 1.67-.42 1.76-.14 1.82v127.23h-.94V-182.7l.15-1.92.47-1.9.75-1.8 1.02-1.68 1.27-1.5 1.5-1.26 1.67-1.02 1.8-.75 1.9-.46 1.95-.14h540.6z" stroke="#333" stroke-width=".05" fill="#333"/><path d="M1152.36 181.85l-.47-.03-.5.03v-.55h.96z" fill="#333"/><path stroke="#333" stroke-width=".05" fill="#333"/><path d="M244.63-40.65L240-54.92h9.27z" fill="#333"/><path d="M244.63-39.1l-5.28-16.3h10.57zm-3.98-15.34l3.98 12.25 4-12.24z" stroke="#333" stroke-width=".05" fill="#333"/><use xlink:href="#P" transform="matrix(1,0,0,1,797.210320249173,-205.4666666666667) translate(0.005000000000000782 14.4)"/><path d="M-368.1 828.97a8 8 0 0 1 8-8h144a8 8 0 0 1 8 8v104a8 8 0 0 1-8 8h-144a8 8 0 0 1-8-8z" stroke="#000" stroke-opacity="0" stroke-width="2" fill="#d85656"/><use xlink:href="#Q" transform="matrix(1,0,0,1,-356.11428227166175,832.9664851826253) translate(30.574999999999996 50.4)"/><path d="M-368.18 1008.7a10.4 10.4 0 0 1 10.07-7.73h172a6.15 6.15 0 0 1 5.92 7.73l-27.87 104.54a10.4 10.4 0 0 1-10.06 7.73h-172a6.15 6.15 0 0 1-5.95-7.73z" stroke="#000" stroke-opacity="0" stroke-width="2" fill="#eb6b6b"/><use xlink:href="#R" transform="matrix(1,0,0,1,-393.11428227166175,1005.9664851826253) translate(56.629999999999995 38.4625)"/><use xlink:href="#S" transform="matrix(1,0,0,1,-393.11428227166175,1005.9664851826253) translate(19.104999999999997 60.0625)"/><use xlink:href="#T" transform="matrix(1,0,0,1,-393.11428227166175,1005.9664851826253) translate(91.00500000000001 60.0625)"/><use xlink:href="#U" transform="matrix(1,0,0,1,-393.11428227166175,1005.9664851826253) translate(53.60499999999999 81.66250000000001)"/><path d="M-294.5 605.77a10.67 10.67 0 0 1 12.8 0l67.2 50.4a6 6 0 0 1 0 9.6l-67.2 50.4a10.67 10.67 0 0 1-12.8 0l-67.2-50.4a6 6 0 0 1 0-9.6z" stroke="#c54242" stroke-width="4" fill="#fff"/><use xlink:href="#V" transform="matrix(1,0,0,1,-363.11428227166175,605.9664851826253) translate(45.55499999999999 48.775)"/><use xlink:href="#W" transform="matrix(1,0,0,1,-363.11428227166175,605.9664851826253) translate(28.554999999999996 70.375)"/><use xlink:href="#X" transform="matrix(1,0,0,1,-363.11428227166175,605.9664851826253) translate(87.505 70.375)"/><path d="M-278.1 461.65v64.74a5 5 0 0 1-5 5 5 5 0 0 0-5 5v48.85" stroke="#333" fill="none"/><path d="M-277.64 461.67h-.95v-.52h.96z" stroke="#333" stroke-width=".05" fill="#333"/><path d="M-288.1 600l-4.65-14.25h9.27z" stroke="#333" fill="#333"/><path d="M-30.59 661.44h-179v-.95h179zm186.1 0H-7.63v-.95H155.5z" stroke="#333" stroke-width=".05" fill="#333"/><path d="M-209.6 661.44h-.55l.04-.47-.05-.48h.56z" fill="#333"/><path stroke="#333" stroke-width=".05" fill="#333"/><path d="M170.27 660.97L156 665.6v-9.27z" fill="#333"/><path d="M171.8 660.97l-16.27 5.3v-10.6zm-15.32 3.98l12.25-3.98-12.25-4z" stroke="#333" stroke-width=".05" fill="#333"/><use xlink:href="#P" transform="matrix(1,0,0,1,-30.584963073087557,650.1664851826254) translate(0.005000000000000782 14.4)"/><path d="M171.9 608.97a8 8 0 0 1 8-8h144a8 8 0 0 1 8 8v104a8 8 0 0 1-8 8h-144a8 8 0 0 1-8-8z" stroke="#000" stroke-opacity="0" stroke-width="2" fill="#d85656"/><use xlink:href="#Y" transform="matrix(1,0,0,1,183.88571772833825,612.9664851826253) translate(20.599999999999994 41.4)"/><use xlink:href="#Z" transform="matrix(1,0,0,1,183.88571772833825,612.9664851826253) translate(42.75 63)"/><path d="M-287.64 804.58h-.95v-23.15h.96zm0-44.75h-.95V720.8h.96z" stroke="#333" stroke-width=".05" fill="#333"/><path d="M-288.1 720.3l.46-.03v.55h-.95v-.55z" fill="#333"/><path stroke="#333" stroke-width=".05" fill="#333"/><path d="M-288.1 819.35l-4.65-14.27h9.27z" fill="#333"/><path d="M-288.1 820.9l-5.3-16.3h10.57zm-4-15.34l4 12.25 3.97-12.24z" stroke="#333" stroke-width=".05" fill="#333"/><use xlink:href="#aa" transform="matrix(1,0,0,1,-294.5892822716618,759.8352406304173) translate(0.004999999999999893 14.4)"/><path d="M-288.1 941.47v43.1" stroke="#333" fill="none"/><path d="M-287.64 941.48h-.95v-.5h.96z" stroke="#333" stroke-width=".05" fill="#333"/><path d="M-288.1 999.35l-4.65-14.27h9.27z" stroke="#333" fill="#333"/><path d="M332.4 660.97h207.5a12 12 0 0 0 12-12V477.54" stroke="#333" fill="none"/><path d="M332.4 661.44h-.5v-.95h.5z" stroke="#333" stroke-width=".05" fill="#333"/><path d="M551.9 462.77l4.62 14.27h-9.27z" stroke="#333" fill="#333"/><path d="M1552.4 241.15h96.15a12 12 0 0 0 12-12V-109.7a12 12 0 0 1 12-12h80.3" stroke="#333" fill="none"/><path d="M1552.4 241.63h-.5v-.95h.5z" stroke="#333" stroke-width=".05" fill="#333"/><path d="M1767.6-121.7l-14.26 4.64v-9.27z" stroke="#333" fill="#333"/><path d="M1769.22-173.7a8 8 0 0 1 8-8h144a8 8 0 0 1 8 8v104a8 8 0 0 1-8 8h-144a8 8 0 0 1-8-8z" stroke="#000" stroke-opacity="0" stroke-width="2" fill="#ffa0a0"/><use xlink:href="#ab" transform="matrix(1,0,0,1,1781.2190510616717,-169.70018148404137) translate(40.025 50.4)"/><path d="M1769.22 28.45a8 8 0 0 1 8-8h144a8 8 0 0 1 8 8v104a8 8 0 0 1-8 8h-144a8 8 0 0 1-8-8z" stroke="#000" stroke-opacity="0" stroke-width="2" fill="#ffa0a0"/><use xlink:href="#ac" transform="matrix(1,0,0,1,1781.2190510616717,32.44524139120551) translate(17.099999999999994 29.4)"/><use xlink:href="#ad" transform="matrix(1,0,0,1,1781.2190510616717,32.44524139120551) translate(1.5749999999999886 51)"/><use xlink:href="#ae" transform="matrix(1,0,0,1,1781.2190510616717,32.44524139120551) translate(45.55 72.60000000000001)"/><path d="M1741.82 658.77a10.4 10.4 0 0 1 10.07-7.73h152a6.15 6.15 0 0 1 5.92 7.73l-27.87 104.54a10.4 10.4 0 0 1-10.06 7.74h-152a6.15 6.15 0 0 1-5.95-7.73z" stroke="#000" stroke-opacity="0" stroke-width="2" fill="#eb6b6b"/><use xlink:href="#af" transform="matrix(1,0,0,1,1716.8857177283382,656.0386205616644) translate(16.07999999999999 59.0875)"/><use xlink:href="#ag" transform="matrix(1,0,0,1,1716.8857177283382,656.0386205616644) translate(90.03 59.0875)"/><use xlink:href="#ah" transform="matrix(1,0,0,1,1716.8857177283382,656.0386205616644) translate(115.03 59.0875)"/><path d="M1552.4 241.15h96.15a12 12 0 0 0 12-12V92.45a12 12 0 0 1 12-12h80.3" stroke="#333" fill="none"/><path d="M1552.4 241.63h-.5v-.95h.5z" stroke="#333" stroke-width=".05" fill="#333"/><path d="M1767.6 80.44l-14.26 4.64V75.8z" stroke="#333" fill="#333"/><path d="M1896.4 711.04h141.94" stroke="#333" fill="none"/><path d="M1896.4 711.5h-.64l.25-.94h.4z" stroke="#333" stroke-width=".05" fill="#333"/><path d="M2053.1 711.04l-14.26 4.63v-9.27z" stroke="#333" fill="#333"/><path d="M2126.33 655.84a10.67 10.67 0 0 1 12.8 0l67.2 50.4a6 6 0 0 1 0 9.6l-67.2 50.4a10.67 10.67 0 0 1-12.8 0l-67.2-50.4a6 6 0 0 1 0-9.6z" stroke="#c54242" stroke-width="4" fill="#fff"/><use xlink:href="#ai" transform="matrix(1,0,0,1,2057.730812014781,656.0386205616644) translate(36.58 48.775)"/><use xlink:href="#aj" transform="matrix(1,0,0,1,2057.730812014781,656.0386205616644) translate(35.53 70.375)"/><path d="M2290.2 711.5h-78.96v-.94h78.95zm80.05 0h-63.06v-.94h63.05z" stroke="#333" stroke-width=".05" fill="#333"/><path d="M2211.25 711.5h-.55l.04-.46-.04-.48h.55z" fill="#333"/><path stroke="#333" stroke-width=".05" fill="#333"/><path d="M2385.02 711.04l-14.27 4.63v-9.27z" fill="#333"/><path d="M2386.56 711.04l-16.28 5.3v-10.6zm-15.33 3.98l12.25-3.98-12.25-3.98z" stroke="#333" stroke-width=".05" fill="#333"/><g><use xlink:href="#N" transform="matrix(1,0,0,1,2290.1881335965063,700.2386205616644) translate(0.005000000000000782 14.4)"/></g><path d="M2386.64 659.04a8 8 0 0 1 8-8h144a8 8 0 0 1 8 8v104a8 8 0 0 1-8 8h-144a8 8 0 0 1-8-8z" stroke="#000" stroke-opacity="0" stroke-width="2" fill="#fe7070"/><g><use xlink:href="#ak" transform="matrix(1,0,0,1,2398.636816781084,663.0386205616644) translate(9.549999999999997 20.4)"/><use xlink:href="#al" transform="matrix(1,0,0,1,2398.636816781084,663.0386205616644) translate(57.5 20.4)"/><use xlink:href="#am" transform="matrix(1,0,0,1,2398.636816781084,663.0386205616644) translate(25.049999999999997 42)"/><use xlink:href="#an" transform="matrix(1,0,0,1,2398.636816781084,663.0386205616644) translate(50.05 42)"/><use xlink:href="#ao" transform="matrix(1,0,0,1,2398.636816781084,663.0386205616644) translate(7.099999999999994 63.6)"/><use xlink:href="#ap" transform="matrix(1,0,0,1,2398.636816781084,663.0386205616644) translate(87.95 63.6)"/><use xlink:href="#aq" transform="matrix(1,0,0,1,2398.636816781084,663.0386205616644) translate(20.574999999999996 85.20000000000002)"/><use xlink:href="#ar" transform="matrix(1,0,0,1,2398.636816781084,663.0386205616644) translate(54.525 85.20000000000002)"/><use xlink:href="#as" transform="matrix(1,0,0,1,2398.636816781084,663.0386205616644) translate(69.525 85.20000000000002)"/></g><path d="M2547.14 711.04h301.6a12 12 0 0 0 12-12v-341.5" stroke="#333" fill="none"/><path d="M2547.15 711.5h-.5v-.94h.5z" stroke="#333" stroke-width=".05" fill="#333"/><path d="M2860.75 342.77l4.63 14.27h-9.27z" stroke="#333" fill="#333"/><path d="M1761.82 248.53a10.4 10.4 0 0 1 10.07-7.73h132a6.15 6.15 0 0 1 5.92 7.73l-27.87 104.54a10.4 10.4 0 0 1-10.06 7.73h-132a6.15 6.15 0 0 1-5.95-7.73z" stroke="#000" stroke-opacity="0" stroke-width="2" fill="#eb6b6b"/><g><use xlink:href="#at" transform="matrix(1,0,0,1,1736.8857177283382,245.79944202148477) translate(44.55499999999999 48.775)"/><use xlink:href="#o" transform="matrix(1,0,0,1,1736.8857177283382,245.79944202148477) translate(13.679999999999987 70.375)"/><use xlink:href="#au" transform="matrix(1,0,0,1,1736.8857177283382,245.79944202148477) translate(18.679999999999986 70.375)"/><use xlink:href="#av" transform="matrix(1,0,0,1,1736.8857177283382,245.79944202148477) translate(82.57999999999998 70.375)"/></g><path d="M1552.4 241.15h85.5a12 12 0 0 1 12 12v35.65a12 12 0 0 0 12 12h69.6" stroke="#333" fill="none"/><path d="M1552.4 241.63h-.5v-.95h.5z" stroke="#333" stroke-width=".05" fill="#333"/><path d="M1746.27 300.8l-14.27 4.63v-9.27z" stroke="#333" fill="#333"/><path d="M2908.75 261.15c17.67 0 32 17.9 32 40s-14.33 40-32 40h-96c-17.68 0-32-17.9-32-40s14.32-40 32-40z" stroke="#000" stroke-opacity="0" stroke-width="2" fill="#9391ff"/><g><use xlink:href="#aw" transform="matrix(1,0,0,1,2785.748571275143,266.153642651764) translate(43.525 27.525)"/><use xlink:href="#ax" transform="matrix(1,0,0,1,2785.748571275143,266.153642651764) translate(34.075 49.125)"/></g><path d="M2064.22 245.95a10.67 10.67 0 0 1 12.8 0l67.2 50.4a6 6 0 0 1 0 9.6l-67.2 50.4a10.67 10.67 0 0 1-12.8 0l-67.2-50.4a6 6 0 0 1 0-9.6z" stroke="#c54242" stroke-width="4" fill="#fff"/><g><use xlink:href="#ai" transform="matrix(1,0,0,1,1995.6195957930802,246.15364265176402) translate(36.58 48.775)"/><use xlink:href="#ay" transform="matrix(1,0,0,1,1995.6195957930802,246.15364265176402) translate(26.054999999999996 70.375)"/></g><path d="M1983.62 300.18v1.95h-30.98v-1.96zm-86.73 1.6v-1.96h38.95v1.95z" stroke="#3a414a" stroke-width=".05" fill="#3a414a"/><path d="M1896.9 301.77h-1.27l.52-1.95h.76z" fill="#3a414a"/><path stroke="#3a414a" stroke-width=".05" fill="#3a414a"/><path d="M1990.65 301.15l-12.92 7.64V293.5z" fill="#3a414a"/><path d="M1992.56 301.15l-15.8 9.35v-18.7zm-13.85 5.93l10.03-5.93-10.02-5.92z" stroke="#3a414a" stroke-width=".05" fill="#3a414a"/><g><use xlink:href="#az" transform="matrix(1,0,0,1,1935.8532681337504,290.3098756699576) translate(0 14.222222222222223)"/></g><path d="M1731.9 469.15a8 8 0 0 1 8-8h144a8 8 0 0 1 8 8v104a8 8 0 0 1-8 8h-144a8 8 0 0 1-8-8z" stroke="#000" stroke-opacity="0" stroke-width="2" fill="#ffa0a0"/><g><use xlink:href="#aA" transform="matrix(1,0,0,1,1743.8857177283382,473.153642651764) translate(15.049999999999997 41.4)"/><use xlink:href="#aB" transform="matrix(1,0,0,1,1743.8857177283382,473.153642651764) translate(91.95 41.4)"/><use xlink:href="#aC" transform="matrix(1,0,0,1,1743.8857177283382,473.153642651764) translate(26.025 63)"/><use xlink:href="#aD" transform="matrix(1,0,0,1,1743.8857177283382,473.153642651764) translate(46.025 63)"/></g><path d="M1932.86 411.3h-96.96l-3.7.3-3.58.85-3.4 1.4-3.16 1.94-2.8 2.4-2.4 2.8-1.93 3.14-1.42 3.4-.85 3.6-.3 3.7v19.44h-.94V434.8l.3-3.8.9-3.74 1.48-3.55 2-3.26 2.5-2.93 2.92-2.48 3.27-2 3.55-1.48 3.74-.9 3.8-.3h97zm138.23-24.46l-.3 3.8-.9 3.75-1.47 3.53-2 3.28-2.5 2.93-2.92 2.5-3.27 2-3.55 1.47-3.73.9-3.8.3h-97v-.95h96.95l3.7-.3 3.6-.86 3.4-1.42 3.15-1.93 2.8-2.4 2.4-2.8 1.93-3.15 1.4-3.4.87-3.6.3-3.7V361h.94z" stroke="#3a414a" stroke-width=".05" fill="#3a414a"/><path d="M2070.62 360.5l.47-.04v.54h-.95v-.54z" fill="#3a414a"/><path stroke="#3a414a" stroke-width=".05" fill="#3a414a"/><path d="M1811.9 460.17l-7.65-12.9h15.27z" fill="#3a414a"/><path d="M1811.9 461.1l-8.48-14.3h16.93zm-6.82-13.37l6.8 11.5 6.8-11.5z" stroke="#3a414a" stroke-width=".05" fill="#3a414a"/><g><use xlink:href="#aE" transform="matrix(1,0,0,1,1932.857595032314,400.1557314328893) translate(0 14.222222222222223)"/></g><path d="M1811.9 581.65v62.5" stroke="#3a414a" fill="none"/><path d="M1812.36 581.67h-.95v-.52h.96z" stroke="#3a414a" stroke-width=".05" fill="#3a414a"/><path d="M1811.9 650.06l-7.65-12.9h15.27z" stroke="#3a414a" fill="#3a414a"/><path d="M2202.07 301.63h-52.94v-.95h52.94zm70.17 0h-46.57v-.95h46.57z" stroke="#3a414a" stroke-width=".05" fill="#3a414a"/><path d="M2149.14 301.63h-.56l.05-.48-.05-.47h.56z" fill="#3a414a"/><path stroke="#3a414a" stroke-width=".05" fill="#3a414a"/><path d="M2278.13 301.15l-12.9 7.64V293.5z" fill="#3a414a"/><path d="M2279.07 301.15l-14.32 8.47v-16.94zm-13.37 6.8l11.5-6.8-11.5-6.8z" stroke="#3a414a" stroke-width=".05" fill="#3a414a"/><g><use xlink:href="#aF" transform="matrix(1,0,0,1,2202.068738724194,290.48697598509733) translate(0 14.222222222222223)"/></g><path d="M2274.55 248.8a8 8 0 0 1 8-8h144a8 8 0 0 1 8 8v104a8 8 0 0 1-8 8h-144a8 8 0 0 1-8-8z" stroke="#000" stroke-opacity="0" stroke-width="2" fill="#ffa0a0"/><g><use xlink:href="#aG" transform="matrix(1,0,0,1,2286.552384395036,252.79944202152546) translate(28 41.4)"/><use xlink:href="#aH" transform="matrix(1,0,0,1,2286.552384395036,252.79944202152546) translate(88 41.4)"/><use xlink:href="#aI" transform="matrix(1,0,0,1,2286.552384395036,252.79944202152546) translate(43.5 63)"/></g><path d="M2354.55 240.3v-15.5a24 24 0 0 0-24-24H1845.9a24 24 0 0 0-24 24v9.13" stroke="#3a414a" fill="none"/><path d="M2355.03 240.8h-.95v-.5h.95z" stroke="#3a414a" stroke-width=".05" fill="#3a414a"/><path d="M1821.9 239.82l-7.65-12.9h15.27z" stroke="#3a414a" fill="#3a414a"/><defs><path fill="#4c535d" d="M24-231v-30h32v30H24zM24 0v-190h32V0H24" id="aJ"/><path fill="#4c535d" d="M117-194c89-4 53 116 60 194h-32v-121c0-31-8-49-39-48C34-167 62-67 57 0H25l-1-190h30c1 10-1 24 2 32 11-22 29-35 61-36" id="aK"/><path fill="#4c535d" d="M96-169c-40 0-48 33-48 73s9 75 48 75c24 0 41-14 43-38l32 2c-6 37-31 61-74 61-59 0-76-41-82-99-10-93 101-131 147-64 4 7 5 14 7 22l-32 3c-4-21-16-35-41-35" id="aL"/><path fill="#4c535d" d="M100-194c62-1 85 37 85 99 1 63-27 99-86 99S16-35 15-95c0-66 28-99 85-99zM99-20c44 1 53-31 53-75 0-43-8-75-51-75s-53 32-53 75 10 74 51 75" id="aM"/><g id="a"><use transform="matrix(0.05,0,0,0.05,0,0)" xlink:href="#aJ"/><use transform="matrix(0.05,0,0,0.05,3.95,0)" xlink:href="#aK"/><use transform="matrix(0.05,0,0,0.05,13.949999999999998,0)" xlink:href="#aJ"/><use transform="matrix(0.05,0,0,0.05,17.9,0)" xlink:href="#aL"/><use transform="matrix(0.05,0,0,0.05,26.899999999999995,0)" xlink:href="#aJ"/><use transform="matrix(0.05,0,0,0.05,30.849999999999994,0)" xlink:href="#aM"/></g><path fill="#4c535d" d="M108 0H70L1-190h34L89-25l56-165h34" id="aN"/><path fill="#4c535d" d="M141 0L90-78 38 0H4l68-98-65-92h35l48 74 47-74h35l-64 92 68 98h-35" id="aO"/><path fill="#4c535d" d="M100-194c63 0 86 42 84 106H49c0 40 14 67 53 68 26 1 43-12 49-29l28 8c-11 28-37 45-77 45C44 4 14-33 15-96c1-61 26-98 85-98zm52 81c6-60-76-77-97-28-3 7-6 17-6 28h103" id="aP"/><path fill="#4c535d" d="M24 0v-261h32V0H24" id="aQ"/><g id="b"><use transform="matrix(0.05,0,0,0.05,0,0)" xlink:href="#aN"/><use transform="matrix(0.05,0,0,0.05,9,0)" xlink:href="#aM"/><use transform="matrix(0.05,0,0,0.05,19,0)" xlink:href="#aO"/><use transform="matrix(0.05,0,0,0.05,28,0)" xlink:href="#aP"/><use transform="matrix(0.05,0,0,0.05,38,0)" xlink:href="#aQ"/></g><path fill="#fff" d="M24-231v-30h32v30H24zM24 0v-190h32V0H24" id="aR"/><path fill="#fff" d="M117-194c89-4 53 116 60 194h-32v-121c0-31-8-49-39-48C34-167 62-67 57 0H25l-1-190h30c1 10-1 24 2 32 11-22 29-35 61-36" id="aS"/><path fill="#fff" d="M96-169c-40 0-48 33-48 73s9 75 48 75c24 0 41-14 43-38l32 2c-6 37-31 61-74 61-59 0-76-41-82-99-10-93 101-131 147-64 4 7 5 14 7 22l-32 3c-4-21-16-35-41-35" id="aT"/><path fill="#fff" d="M141-36C126-15 110 5 73 4 37 3 15-17 15-53c-1-64 63-63 125-63 3-35-9-54-41-54-24 1-41 7-42 31l-33-3c5-37 33-52 76-52 45 0 72 20 72 64v82c-1 20 7 32 28 27v20c-31 9-61-2-59-35zM48-53c0 20 12 33 32 33 41-3 63-29 60-74-43 2-92-5-92 41" id="aU"/><g id="c"><use transform="matrix(0.05,0,0,0.05,0,0)" xlink:href="#aR"/><use transform="matrix(0.05,0,0,0.05,3.95,0)" xlink:href="#aS"/><use transform="matrix(0.05,0,0,0.05,13.949999999999998,0)" xlink:href="#aR"/><use transform="matrix(0.05,0,0,0.05,17.9,0)" xlink:href="#aT"/><use transform="matrix(0.05,0,0,0.05,26.899999999999995,0)" xlink:href="#aR"/><use transform="matrix(0.05,0,0,0.05,30.849999999999994,0)" xlink:href="#aU"/></g><path fill="#fff" d="M135-143c-3-34-86-38-87 0 15 53 115 12 119 90S17 21 10-45l28-5c4 36 97 45 98 0-10-56-113-15-118-90-4-57 82-63 122-42 12 7 21 19 24 35" id="aV"/><path fill="#fff" d="M100-194c63 0 86 42 84 106H49c0 40 14 67 53 68 26 1 43-12 49-29l28 8c-11 28-37 45-77 45C44 4 14-33 15-96c1-61 26-98 85-98zm52 81c6-60-76-77-97-28-3 7-6 17-6 28h103" id="aW"/><path fill="#fff" d="M100-194c62-1 85 37 85 99 1 63-27 99-86 99S16-35 15-95c0-66 28-99 85-99zM99-20c44 1 53-31 53-75 0-43-8-75-51-75s-53 32-53 75 10 74 51 75zM76-211c8-23 27-35 38-54h36v5l-58 49H76" id="aX"/><g id="d"><use transform="matrix(0.05,0,0,0.05,0,0)" xlink:href="#aV"/><use transform="matrix(0.05,0,0,0.05,9,0)" xlink:href="#aW"/><use transform="matrix(0.05,0,0,0.05,19,0)" xlink:href="#aV"/><use transform="matrix(0.05,0,0,0.05,28,0)" xlink:href="#aR"/><use transform="matrix(0.05,0,0,0.05,31.950000000000003,0)" xlink:href="#aX"/></g><use transform="matrix(0.05,0,0,0.05,0,0)" xlink:href="#aS" id="e"/><path fill="#fff" d="M87 75C49 33 22-17 22-94c0-76 28-126 65-167h31c-38 41-64 92-64 168S80 34 118 75H87" id="aY"/><path fill="#fff" d="M30 0v-248h33v221h125V0H30" id="aZ"/><path fill="#fff" d="M140-251c81 0 123 46 123 126C263-46 219 4 140 4 59 4 17-45 17-125s42-126 123-126zm0 227c63 0 89-41 89-101s-29-99-89-99c-61 0-89 39-89 99S79-25 140-24" id="ba"/><path fill="#fff" d="M143 4C61 4 22-44 18-125c-5-107 100-154 193-111 17 8 29 25 37 43l-32 9c-13-25-37-40-76-40-61 0-88 39-88 99 0 61 29 100 91 101 35 0 62-11 79-27v-45h-74v-28h105v86C228-13 192 4 143 4" id="bb"/><g id="f"><use transform="matrix(0.05,0,0,0.05,0,0)" xlink:href="#aY"/><use transform="matrix(0.05,0,0,0.05,5.95,0)" xlink:href="#aZ"/><use transform="matrix(0.05,0,0,0.05,15.949999999999998,0)" xlink:href="#ba"/><use transform="matrix(0.05,0,0,0.05,29.950000000000003,0)" xlink:href="#bb"/></g><path fill="#fff" d="M33 0v-248h34V0H33" id="bc"/><path fill="#fff" d="M190 0L58-211 59 0H30v-248h39L202-35l-2-213h31V0h-41" id="bd"/><g id="g"><use transform="matrix(0.05,0,0,0.05,0,0)" xlink:href="#bc"/><use transform="matrix(0.05,0,0,0.05,5,0)" xlink:href="#bd"/></g><path fill="#fff" d="M33-261c38 41 65 92 65 168S71 34 33 75H2C39 34 66-17 66-93S39-220 2-261h31" id="be"/><use transform="matrix(0.05,0,0,0.05,0,0)" xlink:href="#be" id="h"/><path fill="#fff" d="M197 0v-115H63V0H30v-248h33v105h134v-105h34V0h-34" id="bf"/><path fill="#fff" d="M240 0l2-218c-23 76-54 145-80 218h-23L58-218 59 0H30v-248h44l77 211c21-75 51-140 76-211h43V0h-30" id="bg"/><path fill="#fff" d="M30 0v-248h187v28H63v79h144v27H63v87h162V0H30" id="bh"/><g id="i"><use transform="matrix(0.05,0,0,0.05,0,0)" xlink:href="#bf"/><use transform="matrix(0.05,0,0,0.05,12.950000000000001,0)" xlink:href="#ba"/><use transform="matrix(0.05,0,0,0.05,26.950000000000003,0)" xlink:href="#bg"/><use transform="matrix(0.05,0,0,0.05,41.900000000000006,0)" xlink:href="#bh"/></g><path fill="#fff" d="M16-82v-28h88v28H16" id="bi"/><use transform="matrix(0.05,0,0,0.05,0,0)" xlink:href="#bi" id="j"/><path fill="#fff" d="M233-177c-1 41-23 64-60 70L243 0h-38l-65-103H63V0H30v-248c88 3 205-21 203 71zM63-129c60-2 137 13 137-47 0-61-80-42-137-45v92" id="bj"/><path fill="#fff" d="M205 0l-28-72H64L36 0H1l101-248h38L239 0h-34zm-38-99l-47-123c-12 45-31 82-46 123h93" id="bk"/><g id="k"><use transform="matrix(0.05,0,0,0.05,0,0)" xlink:href="#bb"/><use transform="matrix(0.05,0,0,0.05,14,0)" xlink:href="#bh"/><use transform="matrix(0.05,0,0,0.05,26,0)" xlink:href="#bd"/><use transform="matrix(0.05,0,0,0.05,38.95,0)" xlink:href="#bh"/><use transform="matrix(0.05,0,0,0.05,50.95,0)" xlink:href="#bj"/><use transform="matrix(0.05,0,0,0.05,63.900000000000006,0)" xlink:href="#bk"/><use transform="matrix(0.05,0,0,0.05,75.9,0)" xlink:href="#aZ"/></g><path fill="#333" d="M100-194c63 0 86 42 84 106H49c0 40 14 67 53 68 26 1 43-12 49-29l28 8c-11 28-37 45-77 45C44 4 14-33 15-96c1-61 26-98 85-98zm52 81c6-60-76-77-97-28-3 7-6 17-6 28h103" id="bl"/><path fill="#333" d="M135-143c-3-34-86-38-87 0 15 53 115 12 119 90S17 21 10-45l28-5c4 36 97 45 98 0-10-56-113-15-118-90-4-57 82-63 122-42 12 7 21 19 24 35" id="bm"/><path fill="#333" d="M59-47c-2 24 18 29 38 22v24C64 9 27 4 27-40v-127H5v-23h24l9-43h21v43h35v23H59v120" id="bn"/><path fill="#333" d="M141-36C126-15 110 5 73 4 37 3 15-17 15-53c-1-64 63-63 125-63 3-35-9-54-41-54-24 1-41 7-42 31l-33-3c5-37 33-52 76-52 45 0 72 20 72 64v82c-1 20 7 32 28 27v20c-31 9-61-2-59-35zM48-53c0 20 12 33 32 33 41-3 63-29 60-74-43 2-92-5-92 41" id="bo"/><g id="l"><use transform="matrix(0.05,0,0,0.05,0,0)" xlink:href="#bl"/><use transform="matrix(0.05,0,0,0.05,10,0)" xlink:href="#bm"/><use transform="matrix(0.05,0,0,0.05,19,0)" xlink:href="#bn"/><use transform="matrix(0.05,0,0,0.05,24,0)" xlink:href="#bo"/><use transform="matrix(0.05,0,0,0.05,34,0)" xlink:href="#bm"/></g><path fill="#333" d="M114-163C36-179 61-72 57 0H25l-1-190h30c1 12-1 29 2 39 6-27 23-49 58-41v29" id="bp"/><path fill="#333" d="M177-190C167-65 218 103 67 71c-23-6-38-20-44-43l32-5c15 47 100 32 89-28v-30C133-14 115 1 83 1 29 1 15-40 15-95c0-56 16-97 71-98 29-1 48 16 59 35 1-10 0-23 2-32h30zM94-22c36 0 50-32 50-73 0-42-14-75-50-75-39 0-46 34-46 75s6 73 46 73" id="bq"/><path fill="#333" d="M24-231v-30h32v30H24zM24 0v-190h32V0H24" id="br"/><path fill="#333" d="M85-194c31 0 48 13 60 33l-1-100h32l1 261h-30c-2-10 0-23-3-31C134-8 116 4 85 4 32 4 16-35 15-94c0-66 23-100 70-100zm9 24c-40 0-46 34-46 75 0 40 6 74 45 74 42 0 51-32 51-76 0-42-9-74-50-73" id="bs"/><path fill="#333" d="M100-194c62-1 85 37 85 99 1 63-27 99-86 99S16-35 15-95c0-66 28-99 85-99zM99-20c44 1 53-31 53-75 0-43-8-75-51-75s-53 32-53 75 10 74 51 75" id="bt"/><g id="m"><use transform="matrix(0.05,0,0,0.05,0,0)" xlink:href="#bp"/><use transform="matrix(0.05,0,0,0.05,5.95,0)" xlink:href="#bl"/><use transform="matrix(0.05,0,0,0.05,15.949999999999998,0)" xlink:href="#bq"/><use transform="matrix(0.05,0,0,0.05,25.950000000000003,0)" xlink:href="#br"/><use transform="matrix(0.05,0,0,0.05,29.899999999999995,0)" xlink:href="#bm"/><use transform="matrix(0.05,0,0,0.05,38.9,0)" xlink:href="#bn"/><use transform="matrix(0.05,0,0,0.05,43.9,0)" xlink:href="#bp"/><use transform="matrix(0.05,0,0,0.05,49.85,0)" xlink:href="#bo"/><use transform="matrix(0.05,0,0,0.05,59.85,0)" xlink:href="#bs"/><use transform="matrix(0.05,0,0,0.05,69.85,0)" xlink:href="#bt"/></g><path fill="#333" d="M33-154v-36h34v36H33zM33 0v-36h34V0H33" id="bu"/><g id="n"><use transform="matrix(0.05,0,0,0.05,0,0)" xlink:href="#bp"/><use transform="matrix(0.05,0,0,0.05,5.95,0)" xlink:href="#bl"/><use transform="matrix(0.05,0,0,0.05,15.949999999999998,0)" xlink:href="#bq"/><use transform="matrix(0.05,0,0,0.05,25.950000000000003,0)" xlink:href="#br"/><use transform="matrix(0.05,0,0,0.05,29.899999999999995,0)" xlink:href="#bm"/><use transform="matrix(0.05,0,0,0.05,38.9,0)" xlink:href="#bn"/><use transform="matrix(0.05,0,0,0.05,43.9,0)" xlink:href="#bp"/><use transform="matrix(0.05,0,0,0.05,49.85,0)" xlink:href="#bo"/><use transform="matrix(0.05,0,0,0.05,59.85,0)" xlink:href="#bn"/><use transform="matrix(0.05,0,0,0.05,64.85,0)" xlink:href="#bl"/><use transform="matrix(0.05,0,0,0.05,74.85,0)" xlink:href="#bu"/></g><path fill="#333" d="M87 75C49 33 22-17 22-94c0-76 28-126 65-167h31c-38 41-64 92-64 168S80 34 118 75H87" id="bv"/><path fill="#333" d="M117-194c89-4 53 116 60 194h-32v-121c0-31-8-49-39-48C34-167 62-67 57 0H25l-1-190h30c1 10-1 24 2 32 11-22 29-35 61-36" id="bw"/><path fill="#333" d="M210-169c-67 3-38 105-44 169h-31v-121c0-29-5-50-35-48C34-165 62-65 56 0H25l-1-190h30c1 10-1 24 2 32 10-44 99-50 107 0 11-21 27-35 58-36 85-2 47 119 55 194h-31v-121c0-29-5-49-35-48" id="bx"/><path fill="#333" d="M115-194c53 0 69 39 70 98 0 66-23 100-70 100C84 3 66-7 56-30L54 0H23l1-261h32v101c10-23 28-34 59-34zm-8 174c40 0 45-34 45-75 0-40-5-75-45-74-42 0-51 32-51 76 0 43 10 73 51 73" id="by"/><path fill="#333" d="M68-38c1 34 0 65-14 84H32c9-13 17-26 17-46H33v-38h35" id="bz"/><g id="p"><use transform="matrix(0.05,0,0,0.05,0,0)" xlink:href="#bv"/><use transform="matrix(0.05,0,0,0.05,5.95,0)" xlink:href="#bw"/><use transform="matrix(0.05,0,0,0.05,15.949999999999998,0)" xlink:href="#bt"/><use transform="matrix(0.05,0,0,0.05,25.950000000000003,0)" xlink:href="#bx"/><use transform="matrix(0.05,0,0,0.05,40.9,0)" xlink:href="#by"/><use transform="matrix(0.05,0,0,0.05,50.9,0)" xlink:href="#bp"/><use transform="matrix(0.05,0,0,0.05,56.85,0)" xlink:href="#bl"/><use transform="matrix(0.05,0,0,0.05,66.85,0)" xlink:href="#bz"/></g><path fill="#333" d="M96-169c-40 0-48 33-48 73s9 75 48 75c24 0 41-14 43-38l32 2c-6 37-31 61-74 61-59 0-76-41-82-99-10-93 101-131 147-64 4 7 5 14 7 22l-32 3c-4-21-16-35-41-35" id="bA"/><g id="q"><use transform="matrix(0.05,0,0,0.05,0,0)" xlink:href="#bA"/><use transform="matrix(0.05,0,0,0.05,9,0)" xlink:href="#bt"/><use transform="matrix(0.05,0,0,0.05,19,0)" xlink:href="#bp"/><use transform="matrix(0.05,0,0,0.05,24.95,0)" xlink:href="#bp"/><use transform="matrix(0.05,0,0,0.05,30.899999999999995,0)" xlink:href="#bl"/><use transform="matrix(0.05,0,0,0.05,40.9,0)" xlink:href="#bt"/><use transform="matrix(0.05,0,0,0.05,50.9,0)" xlink:href="#bz"/></g><path fill="#333" d="M24 0v-261h32V0H24" id="bB"/><path fill="#333" d="M108 0H70L1-190h34L89-25l56-165h34" id="bC"/><path fill="#333" d="M33-261c38 41 65 92 65 168S71 34 33 75H2C39 34 66-17 66-93S39-220 2-261h31" id="bD"/><g id="r"><use transform="matrix(0.05,0,0,0.05,0,0)" xlink:href="#bA"/><use transform="matrix(0.05,0,0,0.05,9,0)" xlink:href="#bB"/><use transform="matrix(0.05,0,0,0.05,12.949999999999998,0)" xlink:href="#bo"/><use transform="matrix(0.05,0,0,0.05,22.95,0)" xlink:href="#bC"/><use transform="matrix(0.05,0,0,0.05,31.950000000000003,0)" xlink:href="#bl"/><use transform="matrix(0.05,0,0,0.05,41.95,0)" xlink:href="#bD"/></g><path fill="#333" d="M190 0L58-211 59 0H30v-248h39L202-35l-2-213h31V0h-41" id="bE"/><path fill="#333" d="M140-251c81 0 123 46 123 126C263-46 219 4 140 4 59 4 17-45 17-125s42-126 123-126zm0 227c63 0 89-41 89-101s-29-99-89-99c-61 0-89 39-89 99S79-25 140-24" id="bF"/><g id="s"><use transform="matrix(0.05,0,0,0.05,0,0)" xlink:href="#bE"/><use transform="matrix(0.05,0,0,0.05,12.950000000000001,0)" xlink:href="#bF"/></g><path fill="#333" d="M185-189c-5-48-123-54-124 2 14 75 158 14 163 119 3 78-121 87-175 55-17-10-28-26-33-46l33-7c5 56 141 63 141-1 0-78-155-14-162-118-5-82 145-84 179-34 5 7 8 16 11 25" id="bG"/><path fill="#333" d="M33 0v-248h34V0H33" id="bH"/><g id="t"><use transform="matrix(0.05,0,0,0.05,0,0)" xlink:href="#bG"/><use transform="matrix(0.05,0,0,0.05,12,0)" xlink:href="#bH"/></g><g id="u"><use transform="matrix(0.05,0,0,0.05,0,0)" xlink:href="#br"/><use transform="matrix(0.05,0,0,0.05,3.95,0)" xlink:href="#bw"/><use transform="matrix(0.05,0,0,0.05,13.949999999999998,0)" xlink:href="#bq"/><use transform="matrix(0.05,0,0,0.05,23.95,0)" xlink:href="#bp"/><use transform="matrix(0.05,0,0,0.05,29.899999999999995,0)" xlink:href="#bl"/><use transform="matrix(0.05,0,0,0.05,39.9,0)" xlink:href="#bm"/><use transform="matrix(0.05,0,0,0.05,48.9,0)" xlink:href="#bl"/></g><path fill="#333" d="M84 4C-5 8 30-112 23-190h32v120c0 31 7 50 39 49 72-2 45-101 50-169h31l1 190h-30c-1-10 1-25-2-33-11 22-28 36-60 37" id="bI"/><g id="v"><use transform="matrix(0.05,0,0,0.05,0,0)" xlink:href="#bm"/><use transform="matrix(0.05,0,0,0.05,9,0)" xlink:href="#bI"/><use transform="matrix(0.05,0,0,0.05,19,0)" xlink:href="#bm"/></g><g id="w"><use transform="matrix(0.05,0,0,0.05,0,0)" xlink:href="#bs"/><use transform="matrix(0.05,0,0,0.05,10,0)" xlink:href="#bo"/><use transform="matrix(0.05,0,0,0.05,20,0)" xlink:href="#bn"/><use transform="matrix(0.05,0,0,0.05,25,0)" xlink:href="#bt"/><use transform="matrix(0.05,0,0,0.05,35,0)" xlink:href="#bm"/></g><use transform="matrix(0.05,0,0,0.05,0,0)" xlink:href="#bi" id="y"/><path fill="#fff" d="M232-93c-1 65-40 97-104 97C67 4 28-28 28-90v-158h33c8 89-33 224 67 224 102 0 64-133 71-224h33v155" id="bJ"/><path fill="#fff" d="M185-189c-5-48-123-54-124 2 14 75 158 14 163 119 3 78-121 87-175 55-17-10-28-26-33-46l33-7c5 56 141 63 141-1 0-78-155-14-162-118-5-82 145-84 179-34 5 7 8 16 11 25" id="bK"/><g id="z"><use transform="matrix(0.05,0,0,0.05,0,0)" xlink:href="#bJ"/><use transform="matrix(0.05,0,0,0.05,12.950000000000001,0)" xlink:href="#bK"/><use transform="matrix(0.05,0,0,0.05,24.950000000000003,0)" xlink:href="#bJ"/><use transform="matrix(0.05,0,0,0.05,37.900000000000006,0)" xlink:href="#bk"/><use transform="matrix(0.05,0,0,0.05,49.900000000000006,0)" xlink:href="#bj"/><use transform="matrix(0.05,0,0,0.05,62.85,0)" xlink:href="#bc"/><use transform="matrix(0.05,0,0,0.05,67.85000000000001,0)" xlink:href="#ba"/></g><path fill="#333" d="M101-234c-31-9-42 10-38 44h38v23H63V0H32v-167H5v-23h27c-7-52 17-82 69-68v24" id="bL"/><g id="A"><use transform="matrix(0.05,0,0,0.05,0,0)" xlink:href="#br"/><use transform="matrix(0.05,0,0,0.05,3.95,0)" xlink:href="#bw"/><use transform="matrix(0.05,0,0,0.05,13.949999999999998,0)" xlink:href="#bL"/><use transform="matrix(0.05,0,0,0.05,18.95,0)" xlink:href="#bt"/><use transform="matrix(0.05,0,0,0.05,28.950000000000003,0)" xlink:href="#bp"/><use transform="matrix(0.05,0,0,0.05,34.9,0)" xlink:href="#bx"/><use transform="matrix(0.05,0,0,0.05,49.85,0)" xlink:href="#bo"/><use transform="matrix(0.05,0,0,0.05,59.85,0)" xlink:href="#bA"/><use transform="matrix(0.05,0,0,0.05,68.85,0)" xlink:href="#br"/><use transform="matrix(0.05,0,0,0.05,72.8,0)" xlink:href="#bt"/><use transform="matrix(0.05,0,0,0.05,82.8,0)" xlink:href="#bw"/></g><path fill="#333" d="M100-194c62-1 85 37 85 99 1 63-27 99-86 99S16-35 15-95c0-66 28-99 85-99zM99-20c44 1 53-31 53-75 0-43-8-75-51-75s-53 32-53 75 10 74 51 75zM76-211c8-23 27-35 38-54h36v5l-58 49H76" id="bM"/><g id="B"><use transform="matrix(0.05,0,0,0.05,0,0)" xlink:href="#bx"/><use transform="matrix(0.05,0,0,0.05,14.950000000000001,0)" xlink:href="#bM"/><use transform="matrix(0.05,0,0,0.05,24.950000000000003,0)" xlink:href="#bs"/><use transform="matrix(0.05,0,0,0.05,34.95,0)" xlink:href="#bI"/><use transform="matrix(0.05,0,0,0.05,44.95,0)" xlink:href="#bB"/><use transform="matrix(0.05,0,0,0.05,48.900000000000006,0)" xlink:href="#bt"/><use transform="matrix(0.05,0,0,0.05,58.900000000000006,0)" xlink:href="#bm"/></g><g id="C"><use transform="matrix(0.05,0,0,0.05,0,0)" xlink:href="#bv"/><use transform="matrix(0.05,0,0,0.05,5.95,0)" xlink:href="#bp"/><use transform="matrix(0.05,0,0,0.05,11.9,0)" xlink:href="#bI"/><use transform="matrix(0.05,0,0,0.05,21.9,0)" xlink:href="#bn"/><use transform="matrix(0.05,0,0,0.05,26.899999999999995,0)" xlink:href="#bo"/><use transform="matrix(0.05,0,0,0.05,36.9,0)" xlink:href="#bm"/><use transform="matrix(0.05,0,0,0.05,45.9,0)" xlink:href="#bD"/></g><path fill="#333" d="M197 0v-115H63V0H30v-248h33v105h134v-105h34V0h-34" id="bN"/><path fill="#333" d="M127-220V0H93v-220H8v-28h204v28h-85" id="bO"/><path fill="#333" d="M233-177c-1 41-23 64-60 70L243 0h-38l-65-103H63V0H30v-248c88 3 205-21 203 71zM63-129c60-2 137 13 137-47 0-61-80-42-137-45v92" id="bP"/><path fill="#333" d="M205 0l-28-72H64L36 0H1l101-248h38L239 0h-34zm-38-99l-47-123c-12 45-31 82-46 123h93" id="bQ"/><g id="D"><use transform="matrix(0.05,0,0,0.05,0,0)" xlink:href="#bN"/><use transform="matrix(0.05,0,0,0.05,12.950000000000001,0)" xlink:href="#bH"/><use transform="matrix(0.05,0,0,0.05,17.950000000000003,0)" xlink:href="#bG"/><use transform="matrix(0.05,0,0,0.05,29.950000000000003,0)" xlink:href="#bO"/><use transform="matrix(0.05,0,0,0.05,40.550000000000004,0)" xlink:href="#bF"/><use transform="matrix(0.05,0,0,0.05,54.550000000000004,0)" xlink:href="#bP"/><use transform="matrix(0.05,0,0,0.05,67.5,0)" xlink:href="#bH"/><use transform="matrix(0.05,0,0,0.05,72.5,0)" xlink:href="#bQ"/></g><path fill="#333" d="M30-248c118-7 216 8 213 122C240-48 200 0 122 0H30v-248zM63-27c89 8 146-16 146-99s-60-101-146-95v194" id="bR"/><path fill="#333" d="M30 0v-248h187v28H63v79h144v27H63v87h162V0H30" id="bS"/><g id="E"><use transform="matrix(0.05,0,0,0.05,0,0)" xlink:href="#bR"/><use transform="matrix(0.05,0,0,0.05,12.950000000000001,0)" xlink:href="#bS"/></g><path fill="#333" d="M30 0v-248h33v221h125V0H30" id="bT"/><g id="F"><use transform="matrix(0.05,0,0,0.05,0,0)" xlink:href="#bT"/><use transform="matrix(0.05,0,0,0.05,10,0)" xlink:href="#bQ"/></g><path fill="#333" d="M240 0l2-218c-23 76-54 145-80 218h-23L58-218 59 0H30v-248h44l77 211c21-75 51-140 76-211h43V0h-30" id="bU"/><path fill="#333" d="M212-179c-10-28-35-45-73-45-59 0-87 40-87 99 0 60 29 101 89 101 43 0 62-24 78-52l27 14C228-24 195 4 139 4 59 4 22-46 18-125c-6-104 99-153 187-111 19 9 31 26 39 46" id="bV"/><path fill="#333" d="M109-269c9-18 26-28 38-43h37v5l-55 38h-20zm31 18c81 0 123 46 123 126C263-46 219 4 140 4 59 4 17-45 17-125s42-126 123-126zm0 227c63 0 89-41 89-101s-29-99-89-99c-61 0-89 39-89 99S79-25 140-24" id="bW"/><g id="G"><use transform="matrix(0.05,0,0,0.05,0,0)" xlink:href="#bQ"/><use transform="matrix(0.05,0,0,0.05,12,0)" xlink:href="#bE"/><use transform="matrix(0.05,0,0,0.05,24.950000000000003,0)" xlink:href="#bH"/><use transform="matrix(0.05,0,0,0.05,29.950000000000003,0)" xlink:href="#bU"/><use transform="matrix(0.05,0,0,0.05,44.900000000000006,0)" xlink:href="#bQ"/><use transform="matrix(0.05,0,0,0.05,56.900000000000006,0)" xlink:href="#bV"/><use transform="matrix(0.05,0,0,0.05,69.85000000000001,0)" xlink:href="#bH"/><use transform="matrix(0.05,0,0,0.05,74.85000000000001,0)" xlink:href="#bW"/><use transform="matrix(0.05,0,0,0.05,88.85000000000001,0)" xlink:href="#bE"/></g><g id="H"><use transform="matrix(0.05,0,0,0.05,0,0)" xlink:href="#bS"/><use transform="matrix(0.05,0,0,0.05,12,0)" xlink:href="#bG"/><use transform="matrix(0.05,0,0,0.05,24,0)" xlink:href="#bO"/><use transform="matrix(0.05,0,0,0.05,34.95,0)" xlink:href="#bH"/><use transform="matrix(0.05,0,0,0.05,39.95,0)" xlink:href="#bT"/><use transform="matrix(0.05,0,0,0.05,49.95,0)" xlink:href="#bF"/><use transform="matrix(0.05,0,0,0.05,63.95,0)" xlink:href="#bG"/></g><g id="I"><use transform="matrix(0.05,0,0,0.05,0,0)" xlink:href="#bO"/><use transform="matrix(0.05,0,0,0.05,10.950000000000001,0)" xlink:href="#bS"/><use transform="matrix(0.05,0,0,0.05,22.950000000000003,0)" xlink:href="#bV"/><use transform="matrix(0.05,0,0,0.05,35.900000000000006,0)" xlink:href="#bE"/><use transform="matrix(0.05,0,0,0.05,48.85000000000001,0)" xlink:href="#bH"/><use transform="matrix(0.05,0,0,0.05,53.85,0)" xlink:href="#bV"/><use transform="matrix(0.05,0,0,0.05,66.80000000000001,0)" xlink:href="#bQ"/><use transform="matrix(0.05,0,0,0.05,78.80000000000001,0)" xlink:href="#bG"/></g><path fill="#333" d="M63-220v92h138v28H63V0H30v-248h175v28H63" id="bX"/><path fill="#333" d="M266 0h-40l-56-210L115 0H75L2-248h35L96-30l15-64 43-154h32l59 218 59-218h35" id="bY"/><g id="J"><use transform="matrix(0.05,0,0,0.05,0,0)" xlink:href="#bG"/><use transform="matrix(0.05,0,0,0.05,12,0)" xlink:href="#bF"/><use transform="matrix(0.05,0,0,0.05,26,0)" xlink:href="#bX"/><use transform="matrix(0.05,0,0,0.05,36.95,0)" xlink:href="#bO"/><use transform="matrix(0.05,0,0,0.05,47.900000000000006,0)" xlink:href="#bY"/><use transform="matrix(0.05,0,0,0.05,64.2,0)" xlink:href="#bQ"/><use transform="matrix(0.05,0,0,0.05,76.2,0)" xlink:href="#bP"/><use transform="matrix(0.05,0,0,0.05,89.15,0)" xlink:href="#bS"/></g><g id="K"><use transform="matrix(0.05,0,0,0.05,0,0)" xlink:href="#bS"/><use transform="matrix(0.05,0,0,0.05,12,0)" xlink:href="#bE"/></g><g id="L"><use transform="matrix(0.05,0,0,0.05,0,0)" xlink:href="#bl"/><use transform="matrix(0.05,0,0,0.05,10,0)" xlink:href="#bm"/><use transform="matrix(0.05,0,0,0.05,19,0)" xlink:href="#bn"/><use transform="matrix(0.05,0,0,0.05,24,0)" xlink:href="#bo"/><use transform="matrix(0.05,0,0,0.05,34,0)" xlink:href="#bm"/></g><path fill="#333" d="M103-251c84 0 111 97 45 133-19 10-37 24-39 52H78c0-63 77-55 77-114 0-30-21-42-52-43-32 0-53 17-56 46l-32-2c7-45 34-72 88-72zM77 0v-35h34V0H77" id="bZ"/><g id="M"><use transform="matrix(0.05,0,0,0.05,0,0)" xlink:href="#bp"/><use transform="matrix(0.05,0,0,0.05,5.95,0)" xlink:href="#bl"/><use transform="matrix(0.05,0,0,0.05,15.949999999999998,0)" xlink:href="#bq"/><use transform="matrix(0.05,0,0,0.05,25.950000000000003,0)" xlink:href="#br"/><use transform="matrix(0.05,0,0,0.05,29.899999999999995,0)" xlink:href="#bm"/><use transform="matrix(0.05,0,0,0.05,38.9,0)" xlink:href="#bn"/><use transform="matrix(0.05,0,0,0.05,43.9,0)" xlink:href="#bp"/><use transform="matrix(0.05,0,0,0.05,49.85,0)" xlink:href="#bo"/><use transform="matrix(0.05,0,0,0.05,59.85,0)" xlink:href="#bs"/><use transform="matrix(0.05,0,0,0.05,69.85,0)" xlink:href="#bt"/><use transform="matrix(0.05,0,0,0.05,79.85,0)" xlink:href="#bZ"/></g><path fill="#333" d="M34 0v-190h32V0H34zM24-211c8-23 27-35 38-54h36v5l-58 49H24" id="ca"/><g id="N"><use transform="matrix(0.05,0,0,0.05,0,0)" xlink:href="#bG"/><use transform="matrix(0.05,0,0,0.05,12,0)" xlink:href="#ca"/></g><path fill="#333" d="M137 0h-34L2-248h35l83 218 83-218h36" id="cb"/><g id="O"><use transform="matrix(0.05,0,0,0.05,0,0)" xlink:href="#bQ"/><use transform="matrix(0.05,0,0,0.05,12,0)" xlink:href="#bV"/><use transform="matrix(0.05,0,0,0.05,24.950000000000003,0)" xlink:href="#bO"/><use transform="matrix(0.05,0,0,0.05,35.900000000000006,0)" xlink:href="#bH"/><use transform="matrix(0.05,0,0,0.05,40.900000000000006,0)" xlink:href="#cb"/><use transform="matrix(0.05,0,0,0.05,52.900000000000006,0)" xlink:href="#bH"/><use transform="matrix(0.05,0,0,0.05,57.900000000000006,0)" xlink:href="#bR"/><use transform="matrix(0.05,0,0,0.05,70.85000000000001,0)" xlink:href="#bQ"/><use transform="matrix(0.05,0,0,0.05,82.85000000000001,0)" xlink:href="#bR"/><use transform="matrix(0.05,0,0,0.05,95.80000000000001,0)" xlink:href="#bS"/><use transform="matrix(0.05,0,0,0.05,107.80000000000001,0)" xlink:href="#bG"/></g><g id="P"><use transform="matrix(0.05,0,0,0.05,0,0)" xlink:href="#bE"/><use transform="matrix(0.05,0,0,0.05,12.950000000000001,0)" xlink:href="#bt"/></g><path fill="#333" d="M160-131c35 5 61 23 61 61C221 17 115-2 30 0v-248c76 3 177-17 177 60 0 33-19 50-47 57zm-97-11c50-1 110 9 110-42 0-47-63-36-110-37v79zm0 115c55-2 124 14 124-45 0-56-70-42-124-44v89" id="cc"/><path fill="#333" d="M232-93c-1 65-40 97-104 97C67 4 28-28 28-90v-158h33c8 89-33 224 67 224 102 0 64-133 71-224h33v155" id="cd"/><g id="Q"><use transform="matrix(0.05,0,0,0.05,0,0)" xlink:href="#cc"/><use transform="matrix(0.05,0,0,0.05,12,0)" xlink:href="#cd"/><use transform="matrix(0.05,0,0,0.05,24.950000000000003,0)" xlink:href="#bG"/><use transform="matrix(0.05,0,0,0.05,36.95,0)" xlink:href="#bV"/><use transform="matrix(0.05,0,0,0.05,49.900000000000006,0)" xlink:href="#bQ"/><use transform="matrix(0.05,0,0,0.05,61.900000000000006,0)" xlink:href="#bP"/></g><g id="R"><use transform="matrix(0.05,0,0,0.05,0,0)" xlink:href="#bV"/><use transform="matrix(0.05,0,0,0.05,12.950000000000001,0)" xlink:href="#bF"/><use transform="matrix(0.05,0,0,0.05,26.950000000000003,0)" xlink:href="#bE"/><use transform="matrix(0.05,0,0,0.05,39.900000000000006,0)" xlink:href="#bO"/><use transform="matrix(0.05,0,0,0.05,50.85000000000001,0)" xlink:href="#bS"/><use transform="matrix(0.05,0,0,0.05,62.85,0)" xlink:href="#bE"/><use transform="matrix(0.05,0,0,0.05,75.80000000000001,0)" xlink:href="#bH"/><use transform="matrix(0.05,0,0,0.05,80.80000000000001,0)" xlink:href="#bR"/><use transform="matrix(0.05,0,0,0.05,93.75000000000001,0)" xlink:href="#bF"/></g><g id="S"><use transform="matrix(0.05,0,0,0.05,0,0)" xlink:href="#bv"/><use transform="matrix(0.05,0,0,0.05,5.95,0)" xlink:href="#cb"/><use transform="matrix(0.05,0,0,0.05,17.95,0)" xlink:href="#bH"/><use transform="matrix(0.05,0,0,0.05,22.95,0)" xlink:href="#bR"/><use transform="matrix(0.05,0,0,0.05,35.9,0)" xlink:href="#bS"/><use transform="matrix(0.05,0,0,0.05,47.9,0)" xlink:href="#bF"/><use transform="matrix(0.05,0,0,0.05,61.900000000000006,0)" xlink:href="#bz"/></g><path fill="#333" d="M143 4C61 4 22-44 18-125c-5-107 100-154 193-111 17 8 29 25 37 43l-32 9c-13-25-37-40-76-40-61 0-88 39-88 99 0 61 29 100 91 101 35 0 62-11 79-27v-45h-74v-28h105v86C228-13 192 4 143 4" id="ce"/><g id="T"><use transform="matrix(0.05,0,0,0.05,0,0)" xlink:href="#bH"/><use transform="matrix(0.05,0,0,0.05,5,0)" xlink:href="#bU"/><use transform="matrix(0.05,0,0,0.05,19.950000000000003,0)" xlink:href="#bQ"/><use transform="matrix(0.05,0,0,0.05,31.950000000000003,0)" xlink:href="#ce"/><use transform="matrix(0.05,0,0,0.05,45.95,0)" xlink:href="#bS"/><use transform="matrix(0.05,0,0,0.05,57.95,0)" xlink:href="#bE"/><use transform="matrix(0.05,0,0,0.05,70.9,0)" xlink:href="#bS"/><use transform="matrix(0.05,0,0,0.05,82.9,0)" xlink:href="#bG"/><use transform="matrix(0.05,0,0,0.05,94.9,0)" xlink:href="#bz"/></g><g id="U"><use transform="matrix(0.05,0,0,0.05,0,0)" xlink:href="#bE"/><use transform="matrix(0.05,0,0,0.05,12.950000000000001,0)" xlink:href="#bF"/><use transform="matrix(0.05,0,0,0.05,26.950000000000003,0)" xlink:href="#bO"/><use transform="matrix(0.05,0,0,0.05,37.900000000000006,0)" xlink:href="#bH"/><use transform="matrix(0.05,0,0,0.05,42.900000000000006,0)" xlink:href="#bV"/><use transform="matrix(0.05,0,0,0.05,55.85,0)" xlink:href="#bH"/><use transform="matrix(0.05,0,0,0.05,60.85,0)" xlink:href="#bQ"/><use transform="matrix(0.05,0,0,0.05,72.85000000000001,0)" xlink:href="#bG"/><use transform="matrix(0.05,0,0,0.05,84.85000000000001,0)" xlink:href="#bD"/></g><path fill="#333" d="M145-31C134-9 116 4 85 4 32 4 16-35 15-94c0-59 17-99 70-100 32-1 48 14 60 33 0-11-1-24 2-32h30l-1 268h-32zM93-21c41 0 51-33 51-76s-8-73-50-73c-40 0-46 35-46 75s5 74 45 74" id="cf"/><g id="V"><use transform="matrix(0.05,0,0,0.05,0,0)" xlink:href="#cf"/><use transform="matrix(0.05,0,0,0.05,10,0)" xlink:href="#bI"/><use transform="matrix(0.05,0,0,0.05,20,0)" xlink:href="#br"/><use transform="matrix(0.05,0,0,0.05,23.95,0)" xlink:href="#bl"/><use transform="matrix(0.05,0,0,0.05,33.95,0)" xlink:href="#bp"/><use transform="matrix(0.05,0,0,0.05,39.900000000000006,0)" xlink:href="#bl"/><use transform="matrix(0.05,0,0,0.05,49.900000000000006,0)" xlink:href="#bm"/></g><g id="W"><use transform="matrix(0.05,0,0,0.05,0,0)" xlink:href="#by"/><use transform="matrix(0.05,0,0,0.05,10,0)" xlink:href="#bI"/><use transform="matrix(0.05,0,0,0.05,20,0)" xlink:href="#bm"/><use transform="matrix(0.05,0,0,0.05,29,0)" xlink:href="#bA"/><use transform="matrix(0.05,0,0,0.05,38,0)" xlink:href="#bo"/><use transform="matrix(0.05,0,0,0.05,48,0)" xlink:href="#bp"/></g><g id="X"><use transform="matrix(0.05,0,0,0.05,0,0)" xlink:href="#bo"/><use transform="matrix(0.05,0,0,0.05,10,0)" xlink:href="#bB"/><use transform="matrix(0.05,0,0,0.05,13.949999999999998,0)" xlink:href="#bq"/><use transform="matrix(0.05,0,0,0.05,23.95,0)" xlink:href="#bt"/></g><path fill="#333" d="M209 0H11v-25l151-195H24v-28h176v25L50-27h159V0" id="cg"/><g id="Y"><use transform="matrix(0.05,0,0,0.05,0,0)" xlink:href="#bV"/><use transform="matrix(0.05,0,0,0.05,12.950000000000001,0)" xlink:href="#bF"/><use transform="matrix(0.05,0,0,0.05,26.950000000000003,0)" xlink:href="#bU"/><use transform="matrix(0.05,0,0,0.05,41.900000000000006,0)" xlink:href="#bH"/><use transform="matrix(0.05,0,0,0.05,46.900000000000006,0)" xlink:href="#bS"/><use transform="matrix(0.05,0,0,0.05,58.900000000000006,0)" xlink:href="#bE"/><use transform="matrix(0.05,0,0,0.05,71.85000000000001,0)" xlink:href="#cg"/><use transform="matrix(0.05,0,0,0.05,82.80000000000001,0)" xlink:href="#bQ"/></g><g id="Z"><use transform="matrix(0.05,0,0,0.05,0,0)" xlink:href="#bO"/><use transform="matrix(0.05,0,0,0.05,10.600000000000001,0)" xlink:href="#bF"/><use transform="matrix(0.05,0,0,0.05,24.6,0)" xlink:href="#cd"/><use transform="matrix(0.05,0,0,0.05,37.550000000000004,0)" xlink:href="#bP"/></g><g id="aa"><use transform="matrix(0.05,0,0,0.05,0,0)" xlink:href="#bm"/><use transform="matrix(0.05,0,0,0.05,9,0)" xlink:href="#br"/></g><g id="ab"><use transform="matrix(0.05,0,0,0.05,0,0)" xlink:href="#cb"/><use transform="matrix(0.05,0,0,0.05,12,0)" xlink:href="#bH"/><use transform="matrix(0.05,0,0,0.05,17,0)" xlink:href="#bR"/><use transform="matrix(0.05,0,0,0.05,29.950000000000003,0)" xlink:href="#bS"/><use transform="matrix(0.05,0,0,0.05,41.95,0)" xlink:href="#bF"/></g><g id="ac"><use transform="matrix(0.05,0,0,0.05,0,0)" xlink:href="#bP"/><use transform="matrix(0.05,0,0,0.05,12.950000000000001,0)" xlink:href="#bS"/><use transform="matrix(0.05,0,0,0.05,24.950000000000003,0)" xlink:href="#bV"/><use transform="matrix(0.05,0,0,0.05,37.900000000000006,0)" xlink:href="#cd"/><use transform="matrix(0.05,0,0,0.05,50.85000000000001,0)" xlink:href="#bP"/><use transform="matrix(0.05,0,0,0.05,63.80000000000001,0)" xlink:href="#bG"/><use transform="matrix(0.05,0,0,0.05,75.80000000000001,0)" xlink:href="#bF"/><use transform="matrix(0.05,0,0,0.05,89.80000000000001,0)" xlink:href="#bG"/></g><g id="ad"><use transform="matrix(0.05,0,0,0.05,0,0)" xlink:href="#bv"/><use transform="matrix(0.05,0,0,0.05,5.95,0)" xlink:href="#bs"/><use transform="matrix(0.05,0,0,0.05,15.949999999999998,0)" xlink:href="#bt"/><use transform="matrix(0.05,0,0,0.05,25.950000000000003,0)" xlink:href="#bA"/><use transform="matrix(0.05,0,0,0.05,34.95,0)" xlink:href="#bI"/><use transform="matrix(0.05,0,0,0.05,44.95,0)" xlink:href="#bx"/><use transform="matrix(0.05,0,0,0.05,59.900000000000006,0)" xlink:href="#bl"/><use transform="matrix(0.05,0,0,0.05,69.9,0)" xlink:href="#bw"/><use transform="matrix(0.05,0,0,0.05,79.9,0)" xlink:href="#bn"/><use transform="matrix(0.05,0,0,0.05,84.9,0)" xlink:href="#bo"/><use transform="matrix(0.05,0,0,0.05,94.9,0)" xlink:href="#bA"/><use transform="matrix(0.05,0,0,0.05,103.9,0)" xlink:href="#br"/><use transform="matrix(0.05,0,0,0.05,107.85000000000001,0)" xlink:href="#bt"/><use transform="matrix(0.05,0,0,0.05,117.85000000000001,0)" xlink:href="#bw"/><use transform="matrix(0.05,0,0,0.05,127.85000000000001,0)" xlink:href="#bz"/></g><g id="ae"><use transform="matrix(0.05,0,0,0.05,0,0)" xlink:href="#by"/><use transform="matrix(0.05,0,0,0.05,10,0)" xlink:href="#bB"/><use transform="matrix(0.05,0,0,0.05,13.949999999999998,0)" xlink:href="#bt"/><use transform="matrix(0.05,0,0,0.05,23.95,0)" xlink:href="#bq"/><use transform="matrix(0.05,0,0,0.05,33.95,0)" xlink:href="#bz"/><use transform="matrix(0.05,0,0,0.05,38.95,0)" xlink:href="#bD"/></g><path fill="#333" d="M115-194c55 1 70 41 70 98S169 2 115 4C84 4 66-9 55-30l1 105H24l-1-265h31l2 30c10-21 28-34 59-34zm-8 174c40 0 45-34 45-75s-6-73-45-74c-42 0-51 32-51 76 0 43 10 73 51 73" id="ch"/><path fill="#333" d="M179-190L93 31C79 59 56 82 12 73V49c39 6 53-20 64-50L1-190h34L92-34l54-156h33" id="ci"/><g id="af"><use transform="matrix(0.05,0,0,0.05,0,0)" xlink:href="#ch"/><use transform="matrix(0.05,0,0,0.05,10,0)" xlink:href="#bp"/><use transform="matrix(0.05,0,0,0.05,15.949999999999998,0)" xlink:href="#bt"/><use transform="matrix(0.05,0,0,0.05,25.950000000000003,0)" xlink:href="#ci"/><use transform="matrix(0.05,0,0,0.05,34.95,0)" xlink:href="#bl"/><use transform="matrix(0.05,0,0,0.05,44.95,0)" xlink:href="#bA"/><use transform="matrix(0.05,0,0,0.05,53.95,0)" xlink:href="#bn"/><use transform="matrix(0.05,0,0,0.05,58.95,0)" xlink:href="#bt"/></g><g id="ag"><use transform="matrix(0.05,0,0,0.05,0,0)" xlink:href="#bs"/><use transform="matrix(0.05,0,0,0.05,10,0)" xlink:href="#bl"/></g><g id="ah"><use transform="matrix(0.05,0,0,0.05,0,0)" xlink:href="#bx"/><use transform="matrix(0.05,0,0,0.05,14.950000000000001,0)" xlink:href="#bt"/><use transform="matrix(0.05,0,0,0.05,24.950000000000003,0)" xlink:href="#bs"/><use transform="matrix(0.05,0,0,0.05,34.95,0)" xlink:href="#bI"/><use transform="matrix(0.05,0,0,0.05,44.95,0)" xlink:href="#bB"/><use transform="matrix(0.05,0,0,0.05,48.900000000000006,0)" xlink:href="#bt"/></g><path fill="#333" d="M9 0v-24l116-142H16v-24h144v24L44-24h123V0H9" id="cj"/><g id="ai"><use transform="matrix(0.05,0,0,0.05,0,0)" xlink:href="#bp"/><use transform="matrix(0.05,0,0,0.05,5.95,0)" xlink:href="#bl"/><use transform="matrix(0.05,0,0,0.05,15.949999999999998,0)" xlink:href="#bo"/><use transform="matrix(0.05,0,0,0.05,25.950000000000003,0)" xlink:href="#bB"/><use transform="matrix(0.05,0,0,0.05,29.899999999999995,0)" xlink:href="#br"/><use transform="matrix(0.05,0,0,0.05,33.85,0)" xlink:href="#cj"/><use transform="matrix(0.05,0,0,0.05,42.85,0)" xlink:href="#bo"/><use transform="matrix(0.05,0,0,0.05,52.85,0)" xlink:href="#bm"/><use transform="matrix(0.05,0,0,0.05,61.85,0)" xlink:href="#bn"/><use transform="matrix(0.05,0,0,0.05,66.85,0)" xlink:href="#bl"/></g><g id="aj"><use transform="matrix(0.05,0,0,0.05,0,0)" xlink:href="#ch"/><use transform="matrix(0.05,0,0,0.05,10,0)" xlink:href="#bp"/><use transform="matrix(0.05,0,0,0.05,15.949999999999998,0)" xlink:href="#bt"/><use transform="matrix(0.05,0,0,0.05,25.950000000000003,0)" xlink:href="#ci"/><use transform="matrix(0.05,0,0,0.05,34.95,0)" xlink:href="#bl"/><use transform="matrix(0.05,0,0,0.05,44.95,0)" xlink:href="#bA"/><use transform="matrix(0.05,0,0,0.05,53.95,0)" xlink:href="#bn"/><use transform="matrix(0.05,0,0,0.05,58.95,0)" xlink:href="#bt"/><use transform="matrix(0.05,0,0,0.05,68.95,0)" xlink:href="#bZ"/></g><g id="ak"><use transform="matrix(0.05,0,0,0.05,0,0)" xlink:href="#bl"/><use transform="matrix(0.05,0,0,0.05,10,0)" xlink:href="#bw"/><use transform="matrix(0.05,0,0,0.05,20,0)" xlink:href="#bC"/><use transform="matrix(0.05,0,0,0.05,29,0)" xlink:href="#br"/><use transform="matrix(0.05,0,0,0.05,32.95,0)" xlink:href="#bo"/></g><g id="al"><use transform="matrix(0.05,0,0,0.05,0,0)" xlink:href="#ch"/><use transform="matrix(0.05,0,0,0.05,10,0)" xlink:href="#bp"/><use transform="matrix(0.05,0,0,0.05,15.949999999999998,0)" xlink:href="#bt"/><use transform="matrix(0.05,0,0,0.05,25.950000000000003,0)" xlink:href="#ci"/><use transform="matrix(0.05,0,0,0.05,34.95,0)" xlink:href="#bl"/><use transform="matrix(0.05,0,0,0.05,44.95,0)" xlink:href="#bA"/><use transform="matrix(0.05,0,0,0.05,53.95,0)" xlink:href="#bn"/><use transform="matrix(0.05,0,0,0.05,58.95,0)" xlink:href="#bt"/></g><g id="am"><use transform="matrix(0.05,0,0,0.05,0,0)" xlink:href="#bl"/><use transform="matrix(0.05,0,0,0.05,10,0)" xlink:href="#bw"/></g><g id="an"><use transform="matrix(0.05,0,0,0.05,0,0)" xlink:href="#bL"/><use transform="matrix(0.05,0,0,0.05,5,0)" xlink:href="#bt"/><use transform="matrix(0.05,0,0,0.05,15,0)" xlink:href="#bp"/><use transform="matrix(0.05,0,0,0.05,20.95,0)" xlink:href="#bx"/><use transform="matrix(0.05,0,0,0.05,35.9,0)" xlink:href="#bo"/><use transform="matrix(0.05,0,0,0.05,45.9,0)" xlink:href="#bn"/><use transform="matrix(0.05,0,0,0.05,50.9,0)" xlink:href="#bt"/></g><g id="ao"><use transform="matrix(0.05,0,0,0.05,0,0)" xlink:href="#bp"/><use transform="matrix(0.05,0,0,0.05,5.95,0)" xlink:href="#bl"/><use transform="matrix(0.05,0,0,0.05,15.949999999999998,0)" xlink:href="#cf"/><use transform="matrix(0.05,0,0,0.05,25.950000000000003,0)" xlink:href="#bI"/><use transform="matrix(0.05,0,0,0.05,35.95,0)" xlink:href="#bl"/><use transform="matrix(0.05,0,0,0.05,45.95,0)" xlink:href="#bp"/><use transform="matrix(0.05,0,0,0.05,51.900000000000006,0)" xlink:href="#br"/><use transform="matrix(0.05,0,0,0.05,55.85,0)" xlink:href="#bs"/><use transform="matrix(0.05,0,0,0.05,65.85000000000001,0)" xlink:href="#bt"/></g><path fill="#333" d="M33 0v-38h34V0H33" id="ck"/><g id="ap"><use transform="matrix(0.05,0,0,0.05,0,0)" xlink:href="#bv"/><use transform="matrix(0.05,0,0,0.05,5.95,0)" xlink:href="#ck"/><use transform="matrix(0.05,0,0,0.05,10.95,0)" xlink:href="#ch"/><use transform="matrix(0.05,0,0,0.05,20.95,0)" xlink:href="#bs"/><use transform="matrix(0.05,0,0,0.05,30.950000000000003,0)" xlink:href="#bL"/><use transform="matrix(0.05,0,0,0.05,35.95,0)" xlink:href="#bz"/></g><path fill="#333" d="M24-231v-30h32v30H24zM-9 49c24 4 33-6 33-30v-209h32V24c2 40-23 58-65 49V49" id="cl"/><g id="aq"><use transform="matrix(0.05,0,0,0.05,0,0)" xlink:href="#ck"/><use transform="matrix(0.05,0,0,0.05,5,0)" xlink:href="#bt"/><use transform="matrix(0.05,0,0,0.05,15,0)" xlink:href="#by"/><use transform="matrix(0.05,0,0,0.05,25,0)" xlink:href="#cl"/></g><use transform="matrix(0.05,0,0,0.05,0,0)" xlink:href="#bt" id="ar"/><path fill="#333" d="M155-56V0h-30v-56H8v-25l114-167h33v167h35v25h-35zm-30-156c-27 46-58 90-88 131h88v-131" id="cm"/><g id="as"><use transform="matrix(0.05,0,0,0.05,0,0)" xlink:href="#ck"/><use transform="matrix(0.05,0,0,0.05,5,0)" xlink:href="#bx"/><use transform="matrix(0.05,0,0,0.05,19.950000000000003,0)" xlink:href="#ch"/><use transform="matrix(0.05,0,0,0.05,29.950000000000003,0)" xlink:href="#cm"/><use transform="matrix(0.05,0,0,0.05,39.95,0)" xlink:href="#bD"/></g><g id="at"><use transform="matrix(0.05,0,0,0.05,0,0)" xlink:href="#bl"/><use transform="matrix(0.05,0,0,0.05,10,0)" xlink:href="#bC"/><use transform="matrix(0.05,0,0,0.05,19,0)" xlink:href="#bo"/><use transform="matrix(0.05,0,0,0.05,29,0)" xlink:href="#bB"/><use transform="matrix(0.05,0,0,0.05,32.95,0)" xlink:href="#bI"/><use transform="matrix(0.05,0,0,0.05,42.95,0)" xlink:href="#bo"/><use transform="matrix(0.05,0,0,0.05,52.95,0)" xlink:href="#bA"/><use transform="matrix(0.05,0,0,0.05,61.95,0)" xlink:href="#br"/><use transform="matrix(0.05,0,0,0.05,65.9,0)" xlink:href="#bt"/><use transform="matrix(0.05,0,0,0.05,75.9,0)" xlink:href="#bw"/></g><g id="au"><use transform="matrix(0.05,0,0,0.05,0,0)" xlink:href="#bv"/><use transform="matrix(0.05,0,0,0.05,5.95,0)" xlink:href="#bt"/><use transform="matrix(0.05,0,0,0.05,15.949999999999998,0)" xlink:href="#ch"/><use transform="matrix(0.05,0,0,0.05,25.950000000000003,0)" xlink:href="#bA"/><use transform="matrix(0.05,0,0,0.05,34.95,0)" xlink:href="#br"/><use transform="matrix(0.05,0,0,0.05,38.900000000000006,0)" xlink:href="#bt"/><use transform="matrix(0.05,0,0,0.05,48.900000000000006,0)" xlink:href="#bw"/></g><g id="av"><use transform="matrix(0.05,0,0,0.05,0,0)" xlink:href="#bx"/><use transform="matrix(0.05,0,0,0.05,14.950000000000001,0)" xlink:href="#bI"/><use transform="matrix(0.05,0,0,0.05,24.950000000000003,0)" xlink:href="#bB"/><use transform="matrix(0.05,0,0,0.05,28.900000000000002,0)" xlink:href="#bn"/><use transform="matrix(0.05,0,0,0.05,33.900000000000006,0)" xlink:href="#br"/><use transform="matrix(0.05,0,0,0.05,37.85000000000001,0)" xlink:href="#ch"/><use transform="matrix(0.05,0,0,0.05,47.85000000000001,0)" xlink:href="#bB"/><use transform="matrix(0.05,0,0,0.05,51.80000000000001,0)" xlink:href="#bl"/><use transform="matrix(0.05,0,0,0.05,61.80000000000001,0)" xlink:href="#bD"/></g><g id="aw"><use transform="matrix(0.05,0,0,0.05,0,0)" xlink:href="#bS"/><use transform="matrix(0.05,0,0,0.05,12,0)" xlink:href="#bw"/><use transform="matrix(0.05,0,0,0.05,22,0)" xlink:href="#bn"/><use transform="matrix(0.05,0,0,0.05,27,0)" xlink:href="#bp"/><use transform="matrix(0.05,0,0,0.05,32.95,0)" xlink:href="#bl"/><use transform="matrix(0.05,0,0,0.05,42.95,0)" xlink:href="#bq"/><use transform="matrix(0.05,0,0,0.05,52.95,0)" xlink:href="#bo"/></g><g id="ax"><use transform="matrix(0.05,0,0,0.05,0,0)" xlink:href="#bA"/><use transform="matrix(0.05,0,0,0.05,9,0)" xlink:href="#bl"/><use transform="matrix(0.05,0,0,0.05,19,0)" xlink:href="#bp"/><use transform="matrix(0.05,0,0,0.05,24.95,0)" xlink:href="#bn"/><use transform="matrix(0.05,0,0,0.05,29.950000000000003,0)" xlink:href="#br"/><use transform="matrix(0.05,0,0,0.05,33.9,0)" xlink:href="#bL"/><use transform="matrix(0.05,0,0,0.05,38.9,0)" xlink:href="#br"/><use transform="matrix(0.05,0,0,0.05,42.85,0)" xlink:href="#bA"/><use transform="matrix(0.05,0,0,0.05,51.85,0)" xlink:href="#bo"/><use transform="matrix(0.05,0,0,0.05,61.85,0)" xlink:href="#bs"/><use transform="matrix(0.05,0,0,0.05,71.85,0)" xlink:href="#bt"/></g><g id="ay"><use transform="matrix(0.05,0,0,0.05,0,0)" xlink:href="#bS"/><use transform="matrix(0.05,0,0,0.05,12,0)" xlink:href="#bC"/><use transform="matrix(0.05,0,0,0.05,21,0)" xlink:href="#bo"/><use transform="matrix(0.05,0,0,0.05,31,0)" xlink:href="#bB"/><use transform="matrix(0.05,0,0,0.05,34.95,0)" xlink:href="#bI"/><use transform="matrix(0.05,0,0,0.05,44.95,0)" xlink:href="#bo"/><use transform="matrix(0.05,0,0,0.05,54.95,0)" xlink:href="#bA"/><use transform="matrix(0.05,0,0,0.05,63.95,0)" xlink:href="#br"/><use transform="matrix(0.05,0,0,0.05,67.9,0)" xlink:href="#bt"/><use transform="matrix(0.05,0,0,0.05,77.9,0)" xlink:href="#bw"/><use transform="matrix(0.05,0,0,0.05,87.9,0)" xlink:href="#bZ"/></g><path fill="#333" d="M169-182c-1-43-94-46-97-3 18 66 151 10 154 114 3 95-165 93-204 36-6-8-10-19-12-30l50-8c3 46 112 56 116 5-17-69-150-10-154-114-4-87 153-88 188-35 5 8 8 18 10 28" id="cn"/><path fill="#333" d="M24 0v-248h52V0H24" id="co"/><g id="az"><use transform="matrix(0.04938271604938272,0,0,0.04938271604938272,0,0)" xlink:href="#cn"/><use transform="matrix(0.04938271604938272,0,0,0.04938271604938272,11.851851851851853,0)" xlink:href="#co"/></g><g id="aA"><use transform="matrix(0.05,0,0,0.05,0,0)" xlink:href="#bV"/><use transform="matrix(0.05,0,0,0.05,12.950000000000001,0)" xlink:href="#bt"/><use transform="matrix(0.05,0,0,0.05,22.950000000000003,0)" xlink:href="#bw"/><use transform="matrix(0.05,0,0,0.05,32.95,0)" xlink:href="#bn"/><use transform="matrix(0.05,0,0,0.05,37.95,0)" xlink:href="#br"/><use transform="matrix(0.05,0,0,0.05,41.900000000000006,0)" xlink:href="#bw"/><use transform="matrix(0.05,0,0,0.05,51.900000000000006,0)" xlink:href="#bI"/><use transform="matrix(0.05,0,0,0.05,61.900000000000006,0)" xlink:href="#bo"/></g><g id="aB"><use transform="matrix(0.05,0,0,0.05,0,0)" xlink:href="#bA"/><use transform="matrix(0.05,0,0,0.05,9,0)" xlink:href="#bt"/><use transform="matrix(0.05,0,0,0.05,19,0)" xlink:href="#bw"/></g><g id="aC"><use transform="matrix(0.05,0,0,0.05,0,0)" xlink:href="#bn"/><use transform="matrix(0.05,0,0,0.05,5,0)" xlink:href="#bI"/></g><g id="aD"><use transform="matrix(0.05,0,0,0.05,0,0)" xlink:href="#ch"/><use transform="matrix(0.05,0,0,0.05,10,0)" xlink:href="#bp"/><use transform="matrix(0.05,0,0,0.05,15.949999999999998,0)" xlink:href="#bt"/><use transform="matrix(0.05,0,0,0.05,25.950000000000003,0)" xlink:href="#bA"/><use transform="matrix(0.05,0,0,0.05,34.95,0)" xlink:href="#bl"/><use transform="matrix(0.05,0,0,0.05,44.95,0)" xlink:href="#bm"/><use transform="matrix(0.05,0,0,0.05,53.95,0)" xlink:href="#bt"/></g><path fill="#333" d="M25 0v-190h50V0H25zm-5-208v-5l45-51h45v8l-60 48H20" id="cp"/><g id="aE"><use transform="matrix(0.04938271604938272,0,0,0.04938271604938272,0,0)" xlink:href="#cn"/><use transform="matrix(0.04938271604938272,0,0,0.04938271604938272,11.851851851851853,0)" xlink:href="#cp"/></g><path fill="#333" d="M175 0L67-191c6 58 2 128 3 191H24v-248h59L193-55c-6-58-2-129-3-193h46V0h-61" id="cq"/><path fill="#333" d="M110-194c64 0 96 36 96 99 0 64-35 99-97 99-61 0-95-36-95-99 0-62 34-99 96-99zm-1 164c35 0 45-28 45-65 0-40-10-65-43-65-34 0-45 26-45 65 0 36 10 65 43 65" id="cr"/><g id="aF"><use transform="matrix(0.04938271604938272,0,0,0.04938271604938272,0,0)" xlink:href="#cq"/><use transform="matrix(0.04938271604938272,0,0,0.04938271604938272,12.790123456790125,0)" xlink:href="#cr"/></g><g id="aG"><use transform="matrix(0.05,0,0,0.05,0,0)" xlink:href="#bH"/><use transform="matrix(0.05,0,0,0.05,5,0)" xlink:href="#bw"/><use transform="matrix(0.05,0,0,0.05,15,0)" xlink:href="#bn"/><use transform="matrix(0.05,0,0,0.05,20,0)" xlink:href="#bl"/><use transform="matrix(0.05,0,0,0.05,30,0)" xlink:href="#bw"/><use transform="matrix(0.05,0,0,0.05,40,0)" xlink:href="#bn"/><use transform="matrix(0.05,0,0,0.05,45,0)" xlink:href="#bo"/></g><g id="aH"><use transform="matrix(0.05,0,0,0.05,0,0)" xlink:href="#bs"/><use transform="matrix(0.05,0,0,0.05,10,0)" xlink:href="#bl"/></g><g id="aI"><use transform="matrix(0.05,0,0,0.05,0,0)" xlink:href="#bw"/><use transform="matrix(0.05,0,0,0.05,10,0)" xlink:href="#bI"/><use transform="matrix(0.05,0,0,0.05,20,0)" xlink:href="#bl"/><use transform="matrix(0.05,0,0,0.05,30,0)" xlink:href="#bC"/><use transform="matrix(0.05,0,0,0.05,39,0)" xlink:href="#bt"/></g></defs></g></svg>